G75*
%MOIN*%
%OFA0B0*%
%FSLAX24Y24*%
%IPPOS*%
%LPD*%
%AMOC8*
5,1,8,0,0,1.08239X$1,22.5*
%
%ADD10C,0.0030*%
%ADD11C,0.0100*%
%ADD12C,0.0050*%
%ADD13C,0.0060*%
%ADD14R,0.0098X0.0098*%
%ADD15C,0.0004*%
%ADD16C,0.0030*%
D10*
X001965Y002029D02*
X002013Y001981D01*
X002207Y001981D01*
X002255Y002029D01*
X002255Y002126D01*
X002207Y002175D01*
X002110Y002175D01*
X002110Y002078D01*
X002013Y002175D02*
X001965Y002126D01*
X001965Y002029D01*
X001965Y002276D02*
X002255Y002469D01*
X001965Y002469D01*
X001965Y002570D02*
X001965Y002715D01*
X002013Y002764D01*
X002207Y002764D01*
X002255Y002715D01*
X002255Y002570D01*
X001965Y002570D01*
X001965Y002276D02*
X002255Y002276D01*
X002365Y002167D02*
X002655Y002167D01*
X002715Y002213D02*
X002715Y002310D01*
X002763Y002358D01*
X002812Y002358D01*
X002860Y002310D01*
X002908Y002358D01*
X002957Y002358D01*
X003005Y002310D01*
X003005Y002213D01*
X002957Y002165D01*
X003065Y002210D02*
X003113Y002258D01*
X003162Y002258D01*
X003210Y002210D01*
X003258Y002258D01*
X003307Y002258D01*
X003355Y002210D01*
X003355Y002113D01*
X003307Y002065D01*
X003210Y002162D02*
X003210Y002210D01*
X003065Y002210D02*
X003065Y002113D01*
X003113Y002065D01*
X003113Y002360D02*
X003065Y002408D01*
X003065Y002505D01*
X003113Y002553D01*
X003162Y002553D01*
X003355Y002360D01*
X003355Y002553D01*
X003005Y002556D02*
X002908Y002653D01*
X002715Y002653D01*
X002763Y002754D02*
X002715Y002803D01*
X002715Y002899D01*
X002763Y002948D01*
X002812Y002948D01*
X002860Y002899D01*
X002908Y002948D01*
X002957Y002948D01*
X003005Y002899D01*
X003005Y002803D01*
X002957Y002754D01*
X002860Y002851D02*
X002860Y002899D01*
X003005Y002556D02*
X002908Y002460D01*
X002715Y002460D01*
X002655Y002264D02*
X002655Y002070D01*
X002763Y002165D02*
X002715Y002213D01*
X002860Y002262D02*
X002860Y002310D01*
X002462Y002070D02*
X002365Y002167D01*
X002255Y003076D02*
X002255Y003269D01*
X002255Y003172D02*
X001965Y003172D01*
X002062Y003076D01*
X002013Y003370D02*
X001965Y003419D01*
X001965Y003515D01*
X002013Y003564D01*
X002062Y003564D01*
X002110Y003515D01*
X002158Y003564D01*
X002207Y003564D01*
X002255Y003515D01*
X002255Y003419D01*
X002207Y003370D01*
X002110Y003467D02*
X002110Y003515D01*
X002465Y003715D02*
X002465Y004005D01*
X002610Y004005D01*
X002658Y003957D01*
X002658Y003860D01*
X002610Y003812D01*
X002465Y003812D01*
X002255Y004076D02*
X002255Y004269D01*
X002255Y004172D02*
X001965Y004172D01*
X002062Y004076D01*
X002013Y004370D02*
X001965Y004419D01*
X001965Y004515D01*
X002013Y004564D01*
X002062Y004564D01*
X002255Y004370D01*
X002255Y004564D01*
X002255Y005076D02*
X002255Y005269D01*
X002255Y005172D02*
X001965Y005172D01*
X002062Y005076D01*
X002062Y005370D02*
X001965Y005467D01*
X002255Y005467D01*
X002255Y005370D02*
X002255Y005564D01*
X002255Y006076D02*
X002255Y006269D01*
X002255Y006172D02*
X001965Y006172D01*
X002062Y006076D01*
X002013Y006370D02*
X001965Y006419D01*
X001965Y006515D01*
X002013Y006564D01*
X002207Y006370D01*
X002255Y006419D01*
X002255Y006515D01*
X002207Y006564D01*
X002013Y006564D01*
X002013Y006370D02*
X002207Y006370D01*
X002365Y006408D02*
X002365Y006505D01*
X002413Y006553D01*
X002607Y006553D01*
X002655Y006505D01*
X002655Y006408D01*
X002607Y006360D01*
X002413Y006360D01*
X002365Y006408D01*
X002413Y006258D02*
X002365Y006210D01*
X002365Y006113D01*
X002413Y006065D01*
X002462Y006065D01*
X002510Y006113D01*
X002510Y006210D01*
X002558Y006258D01*
X002607Y006258D01*
X002655Y006210D01*
X002655Y006113D01*
X002607Y006065D01*
X002865Y006865D02*
X002962Y006962D01*
X002865Y007058D01*
X003155Y007058D01*
X003107Y007160D02*
X003155Y007208D01*
X003155Y007305D01*
X003107Y007353D01*
X003155Y007454D02*
X003155Y007648D01*
X003155Y007749D02*
X002865Y007749D01*
X003010Y007797D02*
X003155Y007942D01*
X003058Y007749D02*
X002865Y007942D01*
X002655Y007913D02*
X002607Y007865D01*
X002413Y007865D01*
X002365Y007913D01*
X002365Y008010D01*
X002413Y008058D01*
X002413Y008160D02*
X002462Y008160D01*
X002510Y008208D01*
X002510Y008305D01*
X002558Y008353D01*
X002607Y008353D01*
X002655Y008305D01*
X002655Y008208D01*
X002607Y008160D01*
X002607Y008058D02*
X002655Y008010D01*
X002655Y007913D01*
X002413Y008160D02*
X002365Y008208D01*
X002365Y008305D01*
X002413Y008353D01*
X002413Y008454D02*
X002365Y008503D01*
X002365Y008599D01*
X002413Y008648D01*
X002510Y008599D02*
X002510Y008503D01*
X002462Y008454D01*
X002413Y008454D01*
X002510Y008599D02*
X002558Y008648D01*
X002607Y008648D01*
X002655Y008599D01*
X002655Y008503D01*
X002607Y008454D01*
X002655Y008749D02*
X002365Y008749D01*
X002365Y008894D01*
X002413Y008942D01*
X002510Y008942D01*
X002558Y008894D01*
X002558Y008749D01*
X002655Y009044D02*
X002655Y009140D01*
X002655Y009092D02*
X002365Y009092D01*
X002365Y009044D02*
X002365Y009140D01*
X002207Y009370D02*
X002255Y009419D01*
X002255Y009515D01*
X002207Y009564D01*
X002110Y009564D01*
X002062Y009515D01*
X002062Y009467D01*
X002110Y009370D01*
X001965Y009370D01*
X001965Y009564D01*
X002365Y009829D02*
X002413Y009781D01*
X002607Y009781D01*
X002655Y009829D01*
X002655Y009926D01*
X002607Y009975D01*
X002655Y010076D02*
X002655Y010269D01*
X002655Y010370D02*
X002365Y010370D01*
X002255Y010315D02*
X001965Y010315D01*
X002110Y010170D01*
X002110Y010364D01*
X002365Y010564D02*
X002558Y010370D01*
X002510Y010419D02*
X002655Y010564D01*
X002865Y010415D02*
X002913Y010464D01*
X002962Y010464D01*
X003010Y010415D01*
X003058Y010464D01*
X003107Y010464D01*
X003155Y010415D01*
X003155Y010319D01*
X003107Y010270D01*
X003107Y010169D02*
X002913Y010169D01*
X002865Y010121D01*
X002865Y010024D01*
X002913Y009976D01*
X003107Y009976D01*
X003155Y010024D01*
X003155Y010121D01*
X003107Y010169D01*
X003010Y010367D02*
X003010Y010415D01*
X002865Y010415D02*
X002865Y010319D01*
X002913Y010270D01*
X002655Y010076D02*
X002365Y010076D01*
X002413Y009975D02*
X002365Y009926D01*
X002365Y009829D01*
X002865Y009828D02*
X003155Y009828D01*
X003155Y009876D02*
X003155Y009779D01*
X002865Y009779D02*
X002865Y009876D01*
X002207Y010781D02*
X002255Y010829D01*
X002255Y010926D01*
X002207Y010975D01*
X002158Y010975D01*
X002110Y010926D01*
X002110Y010878D01*
X002110Y010926D02*
X002062Y010975D01*
X002013Y010975D01*
X001965Y010926D01*
X001965Y010829D01*
X002013Y010781D01*
X001965Y011076D02*
X002158Y011076D01*
X002255Y011172D01*
X002158Y011269D01*
X001965Y011269D01*
X002013Y011370D02*
X001965Y011419D01*
X001965Y011515D01*
X002013Y011564D01*
X002062Y011564D01*
X002110Y011515D01*
X002158Y011564D01*
X002207Y011564D01*
X002255Y011515D01*
X002255Y011419D01*
X002207Y011370D01*
X002110Y011467D02*
X002110Y011515D01*
X002210Y011931D02*
X002210Y012125D01*
X002162Y012226D02*
X002307Y012226D01*
X002355Y012274D01*
X002355Y012419D01*
X002162Y012419D01*
X002065Y012520D02*
X002065Y012714D01*
X002113Y012714D01*
X002307Y012520D01*
X002355Y012520D01*
X002355Y012076D02*
X002065Y012076D01*
X002210Y011931D01*
X002307Y013081D02*
X002355Y013129D01*
X002355Y013226D01*
X002307Y013275D01*
X002258Y013275D01*
X002210Y013226D01*
X002210Y013178D01*
X002210Y013226D02*
X002162Y013275D01*
X002113Y013275D01*
X002065Y013226D01*
X002065Y013129D01*
X002113Y013081D01*
X002065Y013376D02*
X002258Y013376D01*
X002355Y013472D01*
X002258Y013569D01*
X002065Y013569D01*
X002113Y013670D02*
X002065Y013719D01*
X002065Y013815D01*
X002113Y013864D01*
X002162Y013864D01*
X002210Y013815D01*
X002258Y013864D01*
X002307Y013864D01*
X002355Y013815D01*
X002355Y013719D01*
X002307Y013670D01*
X002210Y013767D02*
X002210Y013815D01*
X002209Y014062D02*
X002064Y014207D01*
X002354Y014207D01*
X002209Y014256D02*
X002209Y014062D01*
X002161Y014357D02*
X002306Y014357D01*
X002354Y014405D01*
X002354Y014550D01*
X002161Y014550D01*
X002064Y014651D02*
X002064Y014845D01*
X002112Y014845D01*
X002306Y014651D01*
X002354Y014651D01*
X002927Y014135D02*
X003050Y014135D01*
X003112Y014074D01*
X003112Y014012D01*
X003050Y013950D01*
X003112Y013888D01*
X003112Y013827D01*
X003050Y013765D01*
X002927Y013765D01*
X002865Y013827D01*
X002988Y013950D02*
X003050Y013950D01*
X003233Y013888D02*
X003357Y013765D01*
X003480Y013888D01*
X003480Y014135D01*
X003602Y014074D02*
X003663Y014135D01*
X003787Y014135D01*
X003849Y014074D01*
X003849Y014012D01*
X003787Y013950D01*
X003849Y013888D01*
X003849Y013827D01*
X003787Y013765D01*
X003663Y013765D01*
X003602Y013827D01*
X003725Y013950D02*
X003787Y013950D01*
X003412Y014283D02*
X003535Y014406D01*
X003412Y014530D01*
X003165Y014530D01*
X003165Y014651D02*
X003165Y014775D01*
X003165Y014713D02*
X003535Y014713D01*
X003535Y014651D02*
X003535Y014775D01*
X003535Y014897D02*
X003165Y014897D01*
X003535Y015144D01*
X003165Y015144D01*
X003165Y014283D02*
X003412Y014283D01*
X003233Y014135D02*
X003233Y013888D01*
X002927Y014135D02*
X002865Y014074D01*
X003913Y010464D02*
X003865Y010415D01*
X003865Y010319D01*
X003913Y010270D01*
X003913Y010169D02*
X003865Y010121D01*
X003865Y010024D01*
X003913Y009976D01*
X004107Y009976D01*
X004155Y010024D01*
X004155Y010121D01*
X004107Y010169D01*
X003913Y010169D01*
X004155Y010270D02*
X003962Y010464D01*
X003913Y010464D01*
X004155Y010464D02*
X004155Y010270D01*
X004155Y009876D02*
X004155Y009779D01*
X004155Y009828D02*
X003865Y009828D01*
X003865Y009876D02*
X003865Y009779D01*
X003919Y008435D02*
X003870Y008387D01*
X003870Y008193D01*
X003919Y008145D01*
X004015Y008145D01*
X004064Y008193D01*
X004064Y008387D02*
X004015Y008435D01*
X003919Y008435D01*
X003769Y008387D02*
X003721Y008435D01*
X003624Y008435D01*
X003576Y008387D01*
X003576Y008338D01*
X003624Y008290D01*
X003721Y008290D01*
X003769Y008242D01*
X003769Y008193D01*
X003721Y008145D01*
X003624Y008145D01*
X003576Y008193D01*
X003475Y008193D02*
X003475Y008387D01*
X003426Y008435D01*
X003329Y008435D01*
X003281Y008387D01*
X003281Y008193D01*
X003329Y008145D01*
X003426Y008145D01*
X003475Y008193D01*
X003471Y007737D02*
X003718Y007367D01*
X003840Y007429D02*
X003901Y007367D01*
X004025Y007367D01*
X004086Y007429D01*
X004086Y007675D01*
X004025Y007737D01*
X003901Y007737D01*
X003840Y007675D01*
X003840Y007429D01*
X003718Y007737D02*
X003471Y007367D01*
X003155Y007454D02*
X002865Y007454D01*
X002913Y007353D02*
X002865Y007305D01*
X002865Y007208D01*
X002913Y007160D01*
X003107Y007160D01*
X003155Y006865D02*
X002865Y006865D01*
X002255Y007419D02*
X002255Y007515D01*
X002207Y007564D01*
X002013Y007564D01*
X001965Y007515D01*
X001965Y007419D01*
X002013Y007370D01*
X002062Y007370D01*
X002110Y007419D01*
X002110Y007564D01*
X002255Y007419D02*
X002207Y007370D01*
X002207Y008370D02*
X002158Y008370D01*
X002110Y008419D01*
X002110Y008515D01*
X002158Y008564D01*
X002207Y008564D01*
X002255Y008515D01*
X002255Y008419D01*
X002207Y008370D01*
X002110Y008419D02*
X002062Y008370D01*
X002013Y008370D01*
X001965Y008419D01*
X001965Y008515D01*
X002013Y008564D01*
X002062Y008564D01*
X002110Y008515D01*
X004208Y007675D02*
X004270Y007737D01*
X004393Y007737D01*
X004455Y007675D01*
X004455Y007614D01*
X004208Y007367D01*
X004455Y007367D01*
X004576Y007552D02*
X004823Y007552D01*
X004944Y007675D02*
X005006Y007737D01*
X005130Y007737D01*
X005191Y007675D01*
X005191Y007614D01*
X004944Y007367D01*
X005191Y007367D01*
X005313Y007429D02*
X005375Y007367D01*
X005498Y007367D01*
X005560Y007429D01*
X005560Y007552D01*
X005498Y007614D01*
X005436Y007614D01*
X005313Y007552D01*
X005313Y007737D01*
X005560Y007737D01*
X005681Y007552D02*
X005866Y007552D01*
X005928Y007490D01*
X005928Y007429D01*
X005866Y007367D01*
X005743Y007367D01*
X005681Y007429D01*
X005681Y007552D01*
X005805Y007675D01*
X005928Y007737D01*
X005969Y008145D02*
X005969Y008435D01*
X006070Y008435D02*
X006215Y008435D01*
X006264Y008387D01*
X006264Y008193D01*
X006215Y008145D01*
X006070Y008145D01*
X006070Y008435D01*
X005776Y008435D02*
X005969Y008145D01*
X005776Y008145D02*
X005776Y008435D01*
X005675Y008387D02*
X005626Y008435D01*
X005529Y008435D01*
X005481Y008387D01*
X005481Y008193D01*
X005529Y008145D01*
X005626Y008145D01*
X005675Y008193D01*
X005675Y008290D01*
X005578Y008290D01*
X005264Y008145D02*
X005119Y008290D01*
X005070Y008242D02*
X005264Y008435D01*
X005070Y008435D02*
X005070Y008145D01*
X004969Y008145D02*
X004776Y008145D01*
X004776Y008435D01*
X004675Y008387D02*
X004626Y008435D01*
X004529Y008435D01*
X004481Y008387D01*
X004481Y008193D01*
X004529Y008145D01*
X004626Y008145D01*
X004675Y008193D01*
X004865Y009779D02*
X004865Y009876D01*
X004865Y009828D02*
X005155Y009828D01*
X005155Y009876D02*
X005155Y009779D01*
X005107Y009976D02*
X005155Y010024D01*
X005155Y010121D01*
X005107Y010169D01*
X004913Y010169D01*
X004865Y010121D01*
X004865Y010024D01*
X004913Y009976D01*
X005107Y009976D01*
X005155Y010270D02*
X005155Y010464D01*
X005155Y010367D02*
X004865Y010367D01*
X004962Y010270D01*
X005765Y010319D02*
X005765Y010415D01*
X005813Y010464D01*
X006007Y010270D01*
X006055Y010319D01*
X006055Y010415D01*
X006007Y010464D01*
X005813Y010464D01*
X005765Y010319D02*
X005813Y010270D01*
X006007Y010270D01*
X006007Y010169D02*
X005813Y010169D01*
X005765Y010121D01*
X005765Y010024D01*
X005813Y009976D01*
X006007Y009976D01*
X006055Y010024D01*
X006055Y010121D01*
X006007Y010169D01*
X006165Y010175D02*
X006165Y010051D01*
X006165Y010113D02*
X006535Y010113D01*
X006535Y010051D02*
X006535Y010175D01*
X006473Y010297D02*
X006535Y010358D01*
X006535Y010482D01*
X006473Y010544D01*
X006226Y010544D01*
X006165Y010482D01*
X006165Y010358D01*
X006226Y010297D01*
X006473Y010297D01*
X006765Y010210D02*
X006765Y010113D01*
X006813Y010065D01*
X006862Y010065D01*
X006910Y010113D01*
X006910Y010210D01*
X006958Y010258D01*
X007007Y010258D01*
X007055Y010210D01*
X007055Y010113D01*
X007007Y010065D01*
X007165Y010113D02*
X007213Y010065D01*
X007165Y010113D02*
X007165Y010210D01*
X007213Y010258D01*
X007262Y010258D01*
X007455Y010065D01*
X007455Y010258D01*
X007407Y010360D02*
X007358Y010360D01*
X007310Y010408D01*
X007310Y010505D01*
X007358Y010553D01*
X007407Y010553D01*
X007455Y010505D01*
X007455Y010408D01*
X007407Y010360D01*
X007310Y010408D02*
X007262Y010360D01*
X007213Y010360D01*
X007165Y010408D01*
X007165Y010505D01*
X007213Y010553D01*
X007262Y010553D01*
X007310Y010505D01*
X007055Y010505D02*
X007055Y010408D01*
X007007Y010360D01*
X006813Y010360D01*
X006765Y010408D01*
X006765Y010505D01*
X006813Y010553D01*
X006765Y010654D02*
X007055Y010654D01*
X007055Y010848D01*
X007113Y011065D02*
X007065Y011113D01*
X007065Y011210D01*
X007113Y011258D01*
X007162Y011258D01*
X007210Y011210D01*
X007258Y011258D01*
X007307Y011258D01*
X007355Y011210D01*
X007355Y011113D01*
X007307Y011065D01*
X007210Y011162D02*
X007210Y011210D01*
X007258Y011360D02*
X007065Y011360D01*
X007065Y011553D02*
X007258Y011553D01*
X007355Y011456D01*
X007258Y011360D01*
X007307Y011654D02*
X007355Y011703D01*
X007355Y011799D01*
X007307Y011848D01*
X007258Y011848D01*
X007210Y011799D01*
X007210Y011751D01*
X007210Y011799D02*
X007162Y011848D01*
X007113Y011848D01*
X007065Y011799D01*
X007065Y011703D01*
X007113Y011654D01*
X007090Y012115D02*
X007090Y012308D01*
X007042Y012410D02*
X007187Y012410D01*
X007235Y012458D01*
X007235Y012603D01*
X007042Y012603D01*
X006945Y012704D02*
X006945Y012898D01*
X006993Y012898D01*
X007187Y012704D01*
X007235Y012704D01*
X007235Y012260D02*
X006945Y012260D01*
X007090Y012115D01*
X007138Y013165D02*
X006945Y013165D01*
X006945Y013358D02*
X007138Y013358D01*
X007235Y013262D01*
X007138Y013165D01*
X007235Y013460D02*
X007235Y013556D01*
X007235Y013508D02*
X006945Y013508D01*
X006945Y013460D02*
X006945Y013556D01*
X006993Y013656D02*
X007187Y013656D01*
X007235Y013704D01*
X007235Y013801D01*
X007187Y013850D01*
X006993Y013850D01*
X006945Y013801D01*
X006945Y013704D01*
X006993Y013656D01*
X007091Y014284D02*
X007091Y014477D01*
X007042Y014579D02*
X007187Y014579D01*
X007236Y014627D01*
X007236Y014772D01*
X007042Y014772D01*
X006946Y014873D02*
X006946Y015067D01*
X006994Y015067D01*
X007187Y014873D01*
X007236Y014873D01*
X007236Y014429D02*
X006946Y014429D01*
X007091Y014284D01*
X006535Y014245D02*
X006535Y014122D01*
X006473Y014060D01*
X006226Y014060D01*
X006165Y014122D01*
X006165Y014245D01*
X006226Y014307D01*
X006350Y014307D02*
X006350Y014183D01*
X006350Y014307D02*
X006473Y014307D01*
X006535Y014245D01*
X006535Y014428D02*
X006165Y014428D01*
X006535Y014675D01*
X006165Y014675D01*
X006165Y014797D02*
X006165Y014982D01*
X006226Y015044D01*
X006473Y015044D01*
X006535Y014982D01*
X006535Y014797D01*
X006165Y014797D01*
X007007Y010553D02*
X007055Y010505D01*
X006813Y010258D02*
X006765Y010210D01*
X006412Y009930D02*
X006535Y009806D01*
X006412Y009683D01*
X006165Y009683D01*
X006055Y009779D02*
X006055Y009876D01*
X006055Y009828D02*
X005765Y009828D01*
X005765Y009876D02*
X005765Y009779D01*
X006165Y009930D02*
X006412Y009930D01*
X006862Y009448D02*
X006765Y009351D01*
X006862Y009254D01*
X007055Y009254D01*
X007007Y009153D02*
X006813Y009153D01*
X006765Y009105D01*
X006765Y008960D01*
X007055Y008960D01*
X007055Y009105D01*
X007007Y009153D01*
X006910Y009254D02*
X006910Y009448D01*
X006862Y009448D02*
X007055Y009448D01*
X007165Y009360D02*
X007165Y009553D01*
X007213Y009553D01*
X007407Y009360D01*
X007455Y009360D01*
X007455Y009258D02*
X007455Y009065D01*
X007262Y009258D01*
X007213Y009258D01*
X007165Y009210D01*
X007165Y009113D01*
X007213Y009065D01*
X007007Y008858D02*
X007055Y008810D01*
X007055Y008713D01*
X007007Y008665D01*
X006910Y008713D02*
X006910Y008810D01*
X006958Y008858D01*
X007007Y008858D01*
X006910Y008713D02*
X006862Y008665D01*
X006813Y008665D01*
X006765Y008713D01*
X006765Y008810D01*
X006813Y008858D01*
X006755Y008942D02*
X006755Y008749D01*
X006465Y008749D01*
X006465Y008942D01*
X006610Y008846D02*
X006610Y008749D01*
X006755Y008648D02*
X006465Y008648D01*
X006465Y008454D02*
X006755Y008648D01*
X006755Y008454D02*
X006465Y008454D01*
X006513Y008353D02*
X006465Y008305D01*
X006465Y008208D01*
X006513Y008160D01*
X006707Y008160D01*
X006755Y008208D01*
X006755Y008305D01*
X006707Y008353D01*
X006513Y008353D01*
X006513Y008058D02*
X006465Y008010D01*
X006465Y007865D01*
X006755Y007865D01*
X006755Y008010D01*
X006707Y008058D01*
X006513Y008058D01*
X007065Y008113D02*
X007113Y008065D01*
X007065Y008113D02*
X007065Y008210D01*
X007113Y008258D01*
X007162Y008258D01*
X007355Y008065D01*
X007355Y008258D01*
X007307Y008360D02*
X007355Y008408D01*
X007355Y008505D01*
X007307Y008553D01*
X007258Y008553D01*
X007210Y008505D01*
X007210Y008456D01*
X007210Y008505D02*
X007162Y008553D01*
X007113Y008553D01*
X007065Y008505D01*
X007065Y008408D01*
X007113Y008360D01*
X007355Y007553D02*
X007355Y007360D01*
X007355Y007456D02*
X007065Y007456D01*
X007162Y007360D01*
X007162Y007258D02*
X007113Y007258D01*
X007065Y007210D01*
X007065Y007113D01*
X007113Y007065D01*
X007162Y007258D02*
X007355Y007065D01*
X007355Y007258D01*
X007307Y006553D02*
X007113Y006553D01*
X007307Y006360D01*
X007355Y006408D01*
X007355Y006505D01*
X007307Y006553D01*
X007307Y006360D02*
X007113Y006360D01*
X007065Y006408D01*
X007065Y006505D01*
X007113Y006553D01*
X007113Y006258D02*
X007065Y006210D01*
X007065Y006113D01*
X007113Y006065D01*
X007113Y006258D02*
X007162Y006258D01*
X007355Y006065D01*
X007355Y006258D01*
X007113Y005553D02*
X007307Y005360D01*
X007355Y005360D01*
X007355Y005258D02*
X007355Y005065D01*
X007355Y005162D02*
X007065Y005162D01*
X007162Y005065D01*
X007065Y005360D02*
X007065Y005553D01*
X007113Y005553D01*
X006955Y005456D02*
X006955Y005360D01*
X006955Y005408D02*
X006665Y005408D01*
X006665Y005360D02*
X006665Y005456D01*
X006713Y005258D02*
X006665Y005210D01*
X006665Y005113D01*
X006713Y005065D01*
X006762Y005065D01*
X006810Y005113D01*
X006810Y005210D01*
X006858Y005258D01*
X006907Y005258D01*
X006955Y005210D01*
X006955Y005113D01*
X006907Y005065D01*
X006955Y004553D02*
X006665Y004553D01*
X006665Y004360D02*
X006955Y004553D01*
X007045Y004553D02*
X007093Y004456D01*
X007190Y004360D01*
X007190Y004505D01*
X007238Y004553D01*
X007287Y004553D01*
X007335Y004505D01*
X007335Y004408D01*
X007287Y004360D01*
X007190Y004360D01*
X007045Y004162D02*
X007335Y004162D01*
X007335Y004258D02*
X007335Y004065D01*
X007142Y004065D02*
X007045Y004162D01*
X006955Y004210D02*
X006955Y004113D01*
X006907Y004065D01*
X006810Y004113D02*
X006810Y004210D01*
X006858Y004258D01*
X006907Y004258D01*
X006955Y004210D01*
X006955Y004360D02*
X006665Y004360D01*
X006713Y004258D02*
X006665Y004210D01*
X006665Y004113D01*
X006713Y004065D01*
X006762Y004065D01*
X006810Y004113D01*
X006742Y004005D02*
X006549Y004005D01*
X006549Y003715D01*
X006742Y003715D01*
X006646Y003860D02*
X006549Y003860D01*
X006448Y003715D02*
X006448Y004005D01*
X006254Y004005D02*
X006254Y003715D01*
X006153Y003763D02*
X006153Y003957D01*
X006105Y004005D01*
X006008Y004005D01*
X005960Y003957D01*
X005960Y003763D01*
X006008Y003715D01*
X006105Y003715D01*
X006153Y003763D01*
X006254Y004005D02*
X006448Y003715D01*
X006813Y003348D02*
X006765Y003299D01*
X006765Y003154D01*
X007055Y003154D01*
X007055Y003299D01*
X007007Y003348D01*
X006813Y003348D01*
X006765Y003053D02*
X007055Y003053D01*
X006765Y002860D01*
X007055Y002860D01*
X007007Y002758D02*
X006910Y002758D01*
X006910Y002662D01*
X007007Y002758D02*
X007055Y002710D01*
X007055Y002613D01*
X007007Y002565D01*
X006813Y002565D01*
X006765Y002613D01*
X006765Y002710D01*
X006813Y002758D01*
X006907Y002453D02*
X006713Y002453D01*
X006907Y002260D01*
X006955Y002308D01*
X006955Y002405D01*
X006907Y002453D01*
X006907Y002260D02*
X006713Y002260D01*
X006665Y002308D01*
X006665Y002405D01*
X006713Y002453D01*
X006555Y002405D02*
X006555Y002308D01*
X006507Y002260D01*
X006410Y002260D01*
X006410Y002405D01*
X006458Y002453D01*
X006507Y002453D01*
X006555Y002405D01*
X006410Y002260D02*
X006313Y002356D01*
X006265Y002453D01*
X006155Y002405D02*
X006155Y002308D01*
X006107Y002260D01*
X006010Y002308D02*
X006010Y002453D01*
X006107Y002453D02*
X005913Y002453D01*
X005865Y002405D01*
X005865Y002308D01*
X005913Y002260D01*
X005962Y002260D01*
X006010Y002308D01*
X005962Y002158D02*
X005913Y002158D01*
X005865Y002110D01*
X005865Y002013D01*
X005913Y001965D01*
X005962Y002158D02*
X006155Y001965D01*
X006155Y002158D01*
X006265Y002110D02*
X006265Y002013D01*
X006313Y001965D01*
X006265Y002110D02*
X006313Y002158D01*
X006362Y002158D01*
X006555Y001965D01*
X006555Y002158D01*
X006665Y002110D02*
X006665Y002013D01*
X006713Y001965D01*
X006810Y002062D02*
X006810Y002110D01*
X006858Y002158D01*
X006907Y002158D01*
X006955Y002110D01*
X006955Y002013D01*
X006907Y001965D01*
X006810Y002110D02*
X006762Y002158D01*
X006713Y002158D01*
X006665Y002110D01*
X007065Y002110D02*
X007065Y002013D01*
X007113Y001965D01*
X007065Y002110D02*
X007113Y002158D01*
X007162Y002158D01*
X007355Y001965D01*
X007355Y002158D01*
X007307Y002260D02*
X007355Y002308D01*
X007355Y002405D01*
X007307Y002453D01*
X007210Y002453D01*
X007162Y002405D01*
X007162Y002356D01*
X007210Y002260D01*
X007065Y002260D01*
X007065Y002453D01*
X007142Y003065D02*
X007045Y003162D01*
X007335Y003162D01*
X007335Y003258D02*
X007335Y003065D01*
X007190Y003360D02*
X007190Y003553D01*
X007335Y003505D02*
X007045Y003505D01*
X007190Y003360D01*
X006155Y002405D02*
X006107Y002453D01*
X005810Y003715D02*
X005665Y003715D01*
X005665Y004005D01*
X005810Y004005D01*
X005858Y003957D01*
X005858Y003763D01*
X005810Y003715D01*
X005242Y004005D02*
X005049Y004005D01*
X005146Y004005D02*
X005146Y003715D01*
X004948Y003763D02*
X004899Y003715D01*
X004803Y003715D01*
X004754Y003763D01*
X004803Y003860D02*
X004899Y003860D01*
X004948Y003812D01*
X004948Y003763D01*
X004803Y003860D02*
X004754Y003908D01*
X004754Y003957D01*
X004803Y004005D01*
X004899Y004005D01*
X004948Y003957D01*
X004653Y004005D02*
X004460Y004005D01*
X004460Y003715D01*
X004653Y003715D01*
X004556Y003860D02*
X004460Y003860D01*
X004358Y004005D02*
X004165Y004005D01*
X004262Y004005D02*
X004262Y003715D01*
X003248Y003715D02*
X003151Y003812D01*
X003199Y003812D02*
X003054Y003812D01*
X003054Y003715D02*
X003054Y004005D01*
X003199Y004005D01*
X003248Y003957D01*
X003248Y003860D01*
X003199Y003812D01*
X002953Y003715D02*
X002953Y004005D01*
X002856Y003812D02*
X002953Y003715D01*
X002856Y003812D02*
X002760Y003715D01*
X002760Y004005D01*
D11*
X002550Y001950D02*
X002450Y001850D01*
X001750Y001850D01*
X001650Y001750D01*
X003150Y001750D02*
X003150Y001950D01*
X005450Y001650D02*
X005650Y001650D01*
X005850Y001850D01*
X006150Y001650D02*
X006150Y001550D01*
X006150Y001650D02*
X006350Y001850D01*
X006750Y001750D02*
X006850Y001650D01*
X006750Y001750D02*
X006750Y001950D01*
X007150Y002850D02*
X007250Y002850D01*
X007550Y002550D01*
X007450Y002050D02*
X007850Y001650D01*
D12*
X005241Y001859D02*
X004059Y001859D01*
X004059Y003041D02*
X005241Y003041D01*
X004650Y004235D02*
X006265Y005850D01*
X004928Y007186D01*
X004372Y007186D01*
X003035Y005850D01*
X004650Y004235D01*
X004562Y007409D02*
X004564Y007427D01*
X004570Y007445D01*
X004579Y007461D01*
X004591Y007474D01*
X004606Y007485D01*
X004623Y007493D01*
X004641Y007497D01*
X004659Y007497D01*
X004677Y007493D01*
X004694Y007485D01*
X004709Y007474D01*
X004721Y007461D01*
X004730Y007445D01*
X004736Y007427D01*
X004738Y007409D01*
X004736Y007391D01*
X004730Y007373D01*
X004721Y007357D01*
X004709Y007344D01*
X004694Y007333D01*
X004677Y007325D01*
X004659Y007321D01*
X004641Y007321D01*
X004623Y007325D01*
X004606Y007333D01*
X004591Y007344D01*
X004579Y007357D01*
X004570Y007373D01*
X004564Y007391D01*
X004562Y007409D01*
X001909Y013235D02*
X001909Y013865D01*
X000791Y013865D02*
X000791Y013235D01*
X007391Y013235D02*
X007391Y013865D01*
X008509Y013865D02*
X008509Y013235D01*
D13*
X000650Y001100D02*
X000900Y000850D01*
X001400Y000850D01*
X001650Y001100D01*
X001650Y001600D01*
X001400Y001850D01*
X000900Y001850D01*
X000650Y002100D01*
X000650Y002600D01*
X000900Y002850D01*
X000650Y003100D01*
X000650Y003600D01*
X000900Y003850D01*
X000650Y004100D01*
X000650Y004600D01*
X000900Y004850D01*
X000650Y005100D01*
X000650Y005600D01*
X000900Y005850D01*
X000650Y006100D01*
X000650Y006600D01*
X000900Y006850D01*
X000650Y007100D01*
X000650Y007600D01*
X000900Y007850D01*
X000650Y008100D01*
X000650Y008600D01*
X000900Y008850D01*
X000650Y009100D01*
X000650Y009600D01*
X000900Y009850D01*
X000650Y010100D01*
X000650Y010600D01*
X000900Y010850D01*
X000650Y011100D01*
X000650Y011600D01*
X000900Y011850D01*
X001400Y011850D01*
X001650Y011600D01*
X001650Y011100D01*
X001400Y010850D01*
X001650Y010600D01*
X001650Y010100D01*
X001400Y009850D01*
X000900Y009850D01*
X001400Y009850D02*
X001650Y009600D01*
X001650Y009100D01*
X001400Y008850D01*
X001650Y008600D01*
X001650Y008100D01*
X001400Y007850D01*
X001650Y007600D01*
X001650Y007100D01*
X001400Y006850D01*
X000900Y006850D01*
X001400Y006850D02*
X001650Y006600D01*
X001650Y006100D01*
X001400Y005850D01*
X001650Y005600D01*
X001650Y005100D01*
X001400Y004850D01*
X001650Y004600D01*
X001650Y004100D01*
X001400Y003850D01*
X000900Y003850D01*
X001400Y003850D02*
X001650Y003600D01*
X001650Y003100D01*
X001400Y002850D01*
X001650Y002600D01*
X001650Y002100D01*
X001400Y001850D01*
X000900Y001850D01*
X000650Y001600D01*
X000650Y001100D01*
X001650Y000900D02*
X001900Y000650D01*
X002400Y000650D01*
X002650Y000900D01*
X002650Y001400D01*
X002400Y001650D01*
X001900Y001650D01*
X001650Y001400D01*
X001650Y000900D01*
X002650Y001100D02*
X002900Y000850D01*
X003400Y000850D01*
X003650Y001100D01*
X003650Y001600D01*
X003400Y001850D01*
X002900Y001850D01*
X002650Y001600D01*
X002650Y001100D01*
X003650Y000900D02*
X003900Y000650D01*
X004400Y000650D01*
X004650Y000900D01*
X004650Y001400D01*
X004400Y001650D01*
X003900Y001650D01*
X003650Y001400D01*
X003650Y000900D01*
X004650Y001100D02*
X004900Y000850D01*
X005400Y000850D01*
X005650Y001100D01*
X005650Y001600D01*
X005400Y001850D01*
X004900Y001850D01*
X004650Y001600D01*
X004650Y001100D01*
X005650Y000900D02*
X005900Y000650D01*
X006400Y000650D01*
X006650Y000900D01*
X006650Y001400D01*
X006400Y001650D01*
X005900Y001650D01*
X005650Y001400D01*
X005650Y000900D01*
X006650Y001100D02*
X006900Y000850D01*
X007400Y000850D01*
X007650Y001100D01*
X007650Y001600D01*
X007400Y001850D01*
X006900Y001850D01*
X006650Y001600D01*
X006650Y001100D01*
X007650Y000900D02*
X007900Y000650D01*
X008400Y000650D01*
X008650Y000900D01*
X008650Y001400D01*
X008400Y001650D01*
X007900Y001650D01*
X007650Y001400D01*
X007650Y000900D01*
X007900Y001850D02*
X007650Y002100D01*
X007650Y002600D01*
X007900Y002850D01*
X007650Y003100D01*
X007650Y003600D01*
X007900Y003850D01*
X007650Y004100D01*
X007650Y004600D01*
X007900Y004850D01*
X007650Y005100D01*
X007650Y005600D01*
X007900Y005850D01*
X007650Y006100D01*
X007650Y006600D01*
X007900Y006850D01*
X007650Y007100D01*
X007650Y007600D01*
X007900Y007850D01*
X007650Y008100D01*
X007650Y008600D01*
X007900Y008850D01*
X007650Y009100D01*
X007650Y009600D01*
X007900Y009850D01*
X007650Y010100D01*
X007650Y010600D01*
X007900Y010850D01*
X007650Y011100D01*
X007650Y011600D01*
X007900Y011850D01*
X008400Y011850D01*
X008650Y011600D01*
X008650Y011100D01*
X008400Y010850D01*
X008650Y010600D01*
X008650Y010100D01*
X008400Y009850D01*
X007900Y009850D01*
X008400Y009850D02*
X008650Y009600D01*
X008650Y009100D01*
X008400Y008850D01*
X008650Y008600D01*
X008650Y008100D01*
X008400Y007850D01*
X008650Y007600D01*
X008650Y007100D01*
X008400Y006850D01*
X007900Y006850D01*
X008400Y006850D02*
X008650Y006600D01*
X008650Y006100D01*
X008400Y005850D01*
X008650Y005600D01*
X008650Y005100D01*
X008400Y004850D01*
X008650Y004600D01*
X008650Y004100D01*
X008400Y003850D01*
X007900Y003850D01*
X008400Y003850D02*
X008650Y003600D01*
X008650Y003100D01*
X008400Y002850D01*
X008650Y002600D01*
X008650Y002100D01*
X008400Y001850D01*
X007900Y001850D01*
X007900Y002850D02*
X008400Y002850D01*
X008400Y004850D02*
X007900Y004850D01*
X007900Y005850D02*
X008400Y005850D01*
X008400Y007850D02*
X007900Y007850D01*
X007900Y008850D02*
X008400Y008850D01*
X008400Y010850D02*
X007900Y010850D01*
X006650Y010900D02*
X006400Y010650D01*
X005900Y010650D01*
X005650Y010900D01*
X005400Y010650D01*
X004900Y010650D01*
X004650Y010900D01*
X004400Y010650D01*
X003900Y010650D01*
X003650Y010900D01*
X003400Y010650D01*
X002900Y010650D01*
X002650Y010900D01*
X002650Y011400D01*
X002900Y011650D01*
X003400Y011650D01*
X003650Y011400D01*
X003900Y011650D01*
X004400Y011650D01*
X004650Y011400D01*
X004650Y010900D01*
X004650Y011400D02*
X004900Y011650D01*
X005400Y011650D01*
X005650Y011400D01*
X005900Y011650D01*
X006400Y011650D01*
X006650Y011400D01*
X006650Y010900D01*
X006400Y011650D02*
X005900Y011650D01*
X005650Y011900D01*
X005650Y013400D01*
X005400Y013650D01*
X004900Y013650D01*
X004650Y013400D01*
X004650Y011900D01*
X004400Y011650D01*
X003900Y011650D01*
X003650Y011900D01*
X003400Y011650D01*
X002900Y011650D01*
X002650Y011900D01*
X002650Y013400D01*
X002900Y013650D01*
X003400Y013650D01*
X003650Y013400D01*
X003650Y011900D01*
X003650Y011400D02*
X003650Y010900D01*
X003600Y009650D02*
X004100Y009650D01*
X004350Y009400D01*
X004600Y009650D01*
X005100Y009650D01*
X005350Y009400D01*
X005600Y009650D01*
X006100Y009650D01*
X006350Y009400D01*
X006350Y008900D01*
X006100Y008650D01*
X005600Y008650D01*
X005350Y008900D01*
X005100Y008650D01*
X004600Y008650D01*
X004350Y008900D01*
X004100Y008650D01*
X003600Y008650D01*
X003350Y008900D01*
X003350Y009400D01*
X003600Y009650D01*
X004350Y009400D02*
X004350Y008900D01*
X005350Y008900D02*
X005350Y009400D01*
X005650Y010900D02*
X005650Y011400D01*
X005400Y011650D02*
X005650Y011900D01*
X005400Y011650D02*
X004900Y011650D01*
X004650Y011900D01*
X004650Y013400D02*
X004400Y013650D01*
X003900Y013650D01*
X003650Y013400D01*
X004100Y014150D02*
X004600Y014150D01*
X004850Y014400D01*
X005100Y014150D01*
X005600Y014150D01*
X005850Y014400D01*
X005850Y014900D01*
X005600Y015150D01*
X005100Y015150D01*
X004850Y014900D01*
X004850Y014400D01*
X004850Y014900D02*
X004600Y015150D01*
X004100Y015150D01*
X003850Y014900D01*
X003850Y014400D01*
X004100Y014150D01*
X005650Y013400D02*
X005900Y013650D01*
X006400Y013650D01*
X006650Y013400D01*
X006650Y011900D01*
X006400Y011650D01*
X001400Y010850D02*
X000900Y010850D01*
X000900Y008850D02*
X001400Y008850D01*
X001400Y007850D02*
X000900Y007850D01*
X000900Y005850D02*
X001400Y005850D01*
X001400Y004850D02*
X000900Y004850D01*
X000900Y002850D02*
X001400Y002850D01*
D14*
X003201Y003350D03*
X004599Y003350D03*
X006101Y003350D03*
D15*
X007950Y014058D02*
X007950Y014062D01*
X001350Y014058D02*
X001350Y014062D01*
D16*
X001850Y013810D02*
X001850Y013294D01*
X000846Y013294D01*
X000846Y013810D01*
X001850Y013810D01*
X007446Y013810D02*
X007446Y013294D01*
X008450Y013294D01*
X008450Y013810D01*
X007446Y013810D01*
M02*
