G75*
%MOIN*%
%OFA0B0*%
%FSLAX24Y24*%
%IPPOS*%
%LPD*%
%AMOC8*
5,1,8,0,0,1.08239X$1,22.5*
%
%ADD10R,0.1438X0.1438*%
%ADD11R,0.0316X0.0178*%
%ADD12R,0.0356X0.0178*%
%ADD13R,0.0680X0.0680*%
%ADD14OC8,0.0680*%
%ADD15R,0.0395X0.0395*%
%ADD16R,0.0474X0.0474*%
%ADD17R,0.0513X0.0474*%
%ADD18R,0.0352X0.0470*%
%ADD19C,0.0456*%
D10*
G36*
X004650Y004834D02*
X003634Y005850D01*
X004650Y006866D01*
X005666Y005850D01*
X004650Y004834D01*
G37*
D11*
G36*
X004797Y004855D02*
X005019Y004633D01*
X004893Y004507D01*
X004671Y004729D01*
X004797Y004855D01*
G37*
G36*
X004629Y004729D02*
X004407Y004507D01*
X004281Y004633D01*
X004503Y004855D01*
X004629Y004729D01*
G37*
G36*
X003655Y005703D02*
X003433Y005481D01*
X003307Y005607D01*
X003529Y005829D01*
X003655Y005703D01*
G37*
G36*
X003529Y005871D02*
X003307Y006093D01*
X003433Y006219D01*
X003655Y005997D01*
X003529Y005871D01*
G37*
G36*
X004503Y006845D02*
X004281Y007067D01*
X004407Y007193D01*
X004629Y006971D01*
X004503Y006845D01*
G37*
G36*
X004671Y006971D02*
X004893Y007193D01*
X005019Y007067D01*
X004797Y006845D01*
X004671Y006971D01*
G37*
G36*
X005645Y005997D02*
X005867Y006219D01*
X005993Y006093D01*
X005771Y005871D01*
X005645Y005997D01*
G37*
G36*
X005771Y005829D02*
X005993Y005607D01*
X005867Y005481D01*
X005645Y005703D01*
X005771Y005829D01*
G37*
D12*
G36*
X005604Y005718D02*
X005854Y005468D01*
X005728Y005342D01*
X005478Y005592D01*
X005604Y005718D01*
G37*
G36*
X005465Y005579D02*
X005715Y005329D01*
X005589Y005203D01*
X005339Y005453D01*
X005465Y005579D01*
G37*
G36*
X005326Y005439D02*
X005576Y005189D01*
X005450Y005063D01*
X005200Y005313D01*
X005326Y005439D01*
G37*
G36*
X005187Y005300D02*
X005437Y005050D01*
X005311Y004924D01*
X005061Y005174D01*
X005187Y005300D01*
G37*
G36*
X005047Y005161D02*
X005297Y004911D01*
X005171Y004785D01*
X004921Y005035D01*
X005047Y005161D01*
G37*
G36*
X004908Y005022D02*
X005158Y004772D01*
X005032Y004646D01*
X004782Y004896D01*
X004908Y005022D01*
G37*
G36*
X004518Y004896D02*
X004268Y004646D01*
X004142Y004772D01*
X004392Y005022D01*
X004518Y004896D01*
G37*
G36*
X004379Y005035D02*
X004129Y004785D01*
X004003Y004911D01*
X004253Y005161D01*
X004379Y005035D01*
G37*
G36*
X004239Y005174D02*
X003989Y004924D01*
X003863Y005050D01*
X004113Y005300D01*
X004239Y005174D01*
G37*
G36*
X004100Y005313D02*
X003850Y005063D01*
X003724Y005189D01*
X003974Y005439D01*
X004100Y005313D01*
G37*
G36*
X003961Y005453D02*
X003711Y005203D01*
X003585Y005329D01*
X003835Y005579D01*
X003961Y005453D01*
G37*
G36*
X003822Y005592D02*
X003572Y005342D01*
X003446Y005468D01*
X003696Y005718D01*
X003822Y005592D01*
G37*
G36*
X003696Y005982D02*
X003446Y006232D01*
X003572Y006358D01*
X003822Y006108D01*
X003696Y005982D01*
G37*
G36*
X003835Y006121D02*
X003585Y006371D01*
X003711Y006497D01*
X003961Y006247D01*
X003835Y006121D01*
G37*
G36*
X003974Y006261D02*
X003724Y006511D01*
X003850Y006637D01*
X004100Y006387D01*
X003974Y006261D01*
G37*
G36*
X004113Y006400D02*
X003863Y006650D01*
X003989Y006776D01*
X004239Y006526D01*
X004113Y006400D01*
G37*
G36*
X004253Y006539D02*
X004003Y006789D01*
X004129Y006915D01*
X004379Y006665D01*
X004253Y006539D01*
G37*
G36*
X004392Y006678D02*
X004142Y006928D01*
X004268Y007054D01*
X004518Y006804D01*
X004392Y006678D01*
G37*
G36*
X004782Y006804D02*
X005032Y007054D01*
X005158Y006928D01*
X004908Y006678D01*
X004782Y006804D01*
G37*
G36*
X004921Y006665D02*
X005171Y006915D01*
X005297Y006789D01*
X005047Y006539D01*
X004921Y006665D01*
G37*
G36*
X005061Y006526D02*
X005311Y006776D01*
X005437Y006650D01*
X005187Y006400D01*
X005061Y006526D01*
G37*
G36*
X005200Y006387D02*
X005450Y006637D01*
X005576Y006511D01*
X005326Y006261D01*
X005200Y006387D01*
G37*
G36*
X005339Y006247D02*
X005589Y006497D01*
X005715Y006371D01*
X005465Y006121D01*
X005339Y006247D01*
G37*
G36*
X005478Y006108D02*
X005728Y006358D01*
X005854Y006232D01*
X005604Y005982D01*
X005478Y006108D01*
G37*
D13*
X005850Y009150D03*
X008150Y011350D03*
X006150Y013150D03*
X004350Y014650D03*
X003150Y011150D03*
X001150Y011350D03*
D14*
X001150Y001350D03*
X001150Y002350D03*
X001150Y003350D03*
X001150Y004350D03*
X001150Y005350D03*
X001150Y006350D03*
X001150Y007350D03*
X001150Y008350D03*
X001150Y009350D03*
X001150Y010350D03*
X003150Y012150D03*
X003150Y013150D03*
X004150Y013150D03*
X004150Y012150D03*
X004150Y011150D03*
X005150Y011150D03*
X005150Y012150D03*
X005150Y013150D03*
X005350Y014650D03*
X006150Y012150D03*
X006150Y011150D03*
X004850Y009150D03*
X003850Y009150D03*
X008150Y009350D03*
X008150Y010350D03*
X008150Y008350D03*
X008150Y007350D03*
X008150Y006350D03*
X008150Y005350D03*
X008150Y004350D03*
X008150Y003350D03*
X008150Y002350D03*
X008150Y001150D03*
X007150Y001350D03*
X006150Y001150D03*
X005150Y001350D03*
X004150Y001150D03*
X003150Y001350D03*
X002150Y001150D03*
D15*
X002955Y003350D03*
X003545Y003350D03*
X004255Y003350D03*
X004845Y003350D03*
X005855Y003350D03*
X006445Y003350D03*
D16*
X005477Y002765D03*
X005477Y002135D03*
X003823Y002135D03*
X003823Y002765D03*
D17*
X001685Y012350D03*
X001015Y012350D03*
X001015Y014750D03*
X001685Y014750D03*
X007615Y014750D03*
X008285Y014750D03*
X008285Y012350D03*
X007615Y012350D03*
D18*
X007576Y013038D03*
X007576Y014058D03*
X007950Y014058D03*
X008324Y014058D03*
X008324Y013038D03*
X001724Y013038D03*
X001724Y014058D03*
X001350Y014058D03*
X000976Y014058D03*
X000976Y013038D03*
D19*
X004650Y006350D03*
X004650Y005850D03*
X004650Y005350D03*
X004150Y005850D03*
X005150Y005850D03*
M02*
