%
M48
M72
T01C0.0197
T02C0.0236
T03C0.0400
%
T01
X2550Y3050
X2850Y2050
X3550Y3750
X3950Y4250
X4550Y4250
X5050Y3400
X5650Y4300
X6100Y4400
X6450Y4650
X6150Y5850
X6550Y6250
X6650Y6750
X6950Y7650
X6950Y8150
X7250Y9050
X6750Y9550
X7050Y9950
X5000Y9850
X4300Y10200
X4250Y8400
X3550Y7850
X2850Y8450
X2550Y7350
X2650Y6850
X1750Y9150
X1750Y9550
X1750Y10850
X6150Y2750
X6650Y2750
X5050Y2150
T02
X4650Y5350
X4650Y5850
X4650Y6350
X4150Y5850
X5150Y5850
T03
X1150Y1350
X1150Y2350
X1150Y3350
X1150Y4350
X1150Y5350
X1150Y6350
X1150Y7350
X1150Y8350
X1150Y9350
X1150Y10350
X1150Y11350
X3150Y11150
X3150Y12150
X3150Y13150
X4150Y13150
X4150Y12150
X4150Y11150
X5150Y11150
X5150Y12150
X5150Y13150
X5350Y14650
X6150Y13150
X6150Y12150
X6150Y11150
X5850Y9150
X4850Y9150
X3850Y9150
X4350Y14650
X8150Y11350
X8150Y10350
X8150Y9350
X8150Y8350
X8150Y7350
X8150Y6350
X8150Y5350
X8150Y4350
X8150Y3350
X8150Y2350
X8150Y1150
X7150Y1350
X6150Y1150
X5150Y1350
X4150Y1150
X3150Y1350
X2150Y1150
M30
