G75*
%MOIN*%
%OFA0B0*%
%FSLAX24Y24*%
%IPPOS*%
%LPD*%
%AMOC8*
5,1,8,0,0,1.08239X$1,22.5*
%
%ADD10R,0.0551X0.0472*%
%ADD11R,0.0600X0.0600*%
%ADD12OC8,0.0600*%
%ADD13R,0.0394X0.0433*%
%ADD14R,0.0433X0.0394*%
%ADD15R,0.0591X0.0512*%
%ADD16C,0.0337*%
%ADD17C,0.0100*%
%ADD18C,0.0240*%
%ADD19C,0.0160*%
%ADD20C,0.0376*%
D10*
X004217Y007215D03*
X004217Y007885D03*
X005083Y007885D03*
X005083Y007215D03*
D11*
X005850Y009150D03*
X008150Y011350D03*
X006150Y013150D03*
X004350Y014650D03*
X003150Y011150D03*
X001150Y011350D03*
D12*
X001150Y010350D03*
X001150Y009350D03*
X001150Y008350D03*
X001150Y007350D03*
X001150Y006350D03*
X001150Y005350D03*
X001150Y004350D03*
X001150Y003350D03*
X001150Y002350D03*
X001150Y001350D03*
X002150Y001150D03*
X003150Y001350D03*
X004150Y001150D03*
X005150Y001350D03*
X006150Y001150D03*
X007150Y001350D03*
X008150Y001150D03*
X008150Y002350D03*
X008150Y003350D03*
X008150Y004350D03*
X008150Y005350D03*
X008150Y006350D03*
X008150Y007350D03*
X008150Y008350D03*
X008150Y009350D03*
X008150Y010350D03*
X006150Y011150D03*
X006150Y012150D03*
X005150Y012150D03*
X005150Y011150D03*
X004150Y011150D03*
X004150Y012150D03*
X004150Y013150D03*
X003150Y013150D03*
X003150Y012150D03*
X003850Y009150D03*
X004850Y009150D03*
X005150Y013150D03*
X005350Y014650D03*
D13*
X003150Y006685D03*
X003150Y006015D03*
X004315Y003450D03*
X004315Y002550D03*
X004985Y002550D03*
X004985Y003450D03*
D14*
X004815Y004250D03*
X005485Y004250D03*
X006950Y006715D03*
X006950Y007385D03*
X007350Y011215D03*
X007350Y011885D03*
X002550Y004185D03*
X002550Y003515D03*
D15*
X002450Y009865D03*
X002450Y010535D03*
X003250Y010535D03*
X003250Y009865D03*
X005450Y009865D03*
X005450Y010535D03*
X006250Y010535D03*
X006250Y009865D03*
D16*
X006750Y009550D03*
X007050Y009950D03*
X007250Y009050D03*
X006950Y008150D03*
X006950Y007650D03*
X006650Y006750D03*
X006550Y006250D03*
X006150Y005850D03*
X006450Y004650D03*
X006100Y004400D03*
X005650Y004300D03*
X005050Y003400D03*
X004550Y004250D03*
X003950Y004250D03*
X003550Y003750D03*
X002550Y003050D03*
X002850Y002050D03*
X005050Y002150D03*
X006150Y002750D03*
X006650Y002750D03*
X003550Y007850D03*
X004250Y008400D03*
X005000Y009850D03*
X004300Y010200D03*
X002850Y008450D03*
X002550Y007350D03*
X002650Y006850D03*
X001750Y009150D03*
X001750Y009550D03*
X001750Y010850D03*
D17*
X000550Y015146D02*
X000550Y000650D01*
X005624Y000650D01*
X005327Y000947D01*
X005320Y000940D01*
X004980Y000940D01*
X004740Y001180D01*
X004740Y001520D01*
X004910Y001690D01*
X003716Y001690D01*
X003553Y001527D01*
X003560Y001520D01*
X003560Y001180D01*
X003320Y000940D01*
X002980Y000940D01*
X002740Y001180D01*
X002740Y001520D01*
X002980Y001760D01*
X003320Y001760D01*
X003327Y001753D01*
X003490Y001916D01*
X003584Y002010D01*
X004807Y002010D01*
X004772Y002095D01*
X004772Y002205D01*
X004779Y002223D01*
X002749Y002223D01*
X002651Y002125D02*
X004772Y002125D01*
X004779Y002223D02*
X004742Y002223D01*
X004678Y002288D01*
X004678Y002686D01*
X004622Y002631D01*
X004622Y002288D01*
X004558Y002223D01*
X004073Y002223D01*
X004009Y002288D01*
X004009Y002390D01*
X002916Y002390D01*
X002610Y002084D01*
X002610Y001484D01*
X002503Y001377D01*
X002560Y001320D01*
X002560Y000980D01*
X002320Y000740D01*
X001980Y000740D01*
X001740Y000980D01*
X001740Y001320D01*
X001980Y001560D01*
X002234Y001560D01*
X002290Y001616D01*
X002290Y002216D01*
X002384Y002310D01*
X002690Y002616D01*
X002784Y002710D01*
X003390Y002710D01*
X003390Y003516D01*
X003314Y003592D01*
X003272Y003695D01*
X003272Y003805D01*
X003314Y003908D01*
X003392Y003986D01*
X003495Y004028D01*
X003605Y004028D01*
X003708Y003986D01*
X003786Y003908D01*
X003828Y003805D01*
X003828Y003695D01*
X003786Y003592D01*
X003710Y003516D01*
X003710Y002710D01*
X004009Y002710D01*
X004009Y002812D01*
X004073Y002877D01*
X004416Y002877D01*
X004555Y003016D01*
X004649Y003110D01*
X005384Y003110D01*
X005890Y003616D01*
X005890Y003884D01*
X005789Y003985D01*
X005747Y003943D01*
X005223Y003943D01*
X005171Y003994D01*
X005152Y003961D01*
X005124Y003933D01*
X005090Y003913D01*
X005052Y003903D01*
X004864Y003903D01*
X004864Y004202D01*
X004767Y004202D01*
X004449Y004202D01*
X004449Y004033D01*
X004459Y003995D01*
X004479Y003961D01*
X004507Y003933D01*
X004541Y003913D01*
X004579Y003903D01*
X004767Y003903D01*
X004767Y004202D01*
X004767Y004298D01*
X004449Y004298D01*
X004449Y004467D01*
X004459Y004505D01*
X004479Y004539D01*
X004507Y004567D01*
X004541Y004587D01*
X004579Y004597D01*
X004767Y004597D01*
X004767Y004298D01*
X004864Y004298D01*
X004864Y004597D01*
X005052Y004597D01*
X005090Y004587D01*
X005124Y004567D01*
X005152Y004539D01*
X005171Y004506D01*
X005223Y004557D01*
X005260Y004557D01*
X005260Y005629D01*
X005360Y005729D01*
X005360Y005971D01*
X005071Y006260D01*
X004960Y006371D01*
X004960Y006560D01*
X004629Y006560D01*
X004540Y006471D01*
X004429Y006360D01*
X004971Y006360D01*
X004960Y006459D02*
X004527Y006459D01*
X004626Y006557D02*
X004960Y006557D01*
X005070Y006262D02*
X003494Y006262D01*
X003497Y006252D02*
X003487Y006290D01*
X003467Y006324D01*
X003439Y006352D01*
X003406Y006371D01*
X003457Y006423D01*
X003457Y006495D01*
X003537Y006495D01*
X003671Y006360D01*
X003425Y006360D01*
X003457Y006459D02*
X003573Y006459D01*
X003671Y006360D02*
X004429Y006360D01*
X004271Y006740D02*
X003829Y006740D01*
X003805Y006763D01*
X003694Y006875D01*
X003457Y006875D01*
X003457Y006947D01*
X003436Y006967D01*
X003740Y007271D01*
X003740Y007646D01*
X003786Y007692D01*
X003828Y007795D01*
X003828Y007905D01*
X003786Y008008D01*
X003708Y008086D01*
X003605Y008128D01*
X003590Y008128D01*
X003590Y008829D01*
X003340Y009079D01*
X003340Y009499D01*
X003591Y009499D01*
X003655Y009564D01*
X003655Y010167D01*
X003622Y010200D01*
X003655Y010233D01*
X003655Y010387D01*
X003740Y010471D01*
X003840Y010571D01*
X003840Y010880D01*
X003980Y010740D01*
X004320Y010740D01*
X004460Y010880D01*
X004460Y010029D01*
X004271Y009840D01*
X004160Y009729D01*
X004160Y009420D01*
X004020Y009560D01*
X003680Y009560D01*
X003440Y009320D01*
X003440Y008980D01*
X003680Y008740D01*
X003690Y008740D01*
X003690Y008185D01*
X003784Y008092D01*
X003831Y008044D01*
X003831Y007603D01*
X003858Y007576D01*
X003849Y007572D01*
X003821Y007544D01*
X003802Y007509D01*
X003791Y007471D01*
X003791Y007265D01*
X004167Y007265D01*
X004167Y007165D01*
X004267Y007165D01*
X004267Y006829D01*
X004360Y006829D01*
X004271Y006740D01*
X004285Y006754D02*
X003815Y006754D01*
X003861Y006853D02*
X003716Y006853D01*
X003802Y006921D02*
X003791Y006959D01*
X003791Y007165D01*
X004167Y007165D01*
X004167Y006829D01*
X003922Y006829D01*
X003883Y006839D01*
X003849Y006859D01*
X003821Y006887D01*
X003802Y006921D01*
X003794Y006951D02*
X003453Y006951D01*
X003518Y007050D02*
X003791Y007050D01*
X003791Y007148D02*
X003617Y007148D01*
X003715Y007247D02*
X004167Y007247D01*
X004167Y007265D02*
X004167Y007538D01*
X004267Y007538D01*
X004267Y007265D01*
X004643Y007265D01*
X004643Y007471D01*
X004632Y007509D01*
X004613Y007544D01*
X004585Y007572D01*
X004576Y007576D01*
X004603Y007603D01*
X004603Y008166D01*
X004538Y008231D01*
X004097Y008231D01*
X004010Y008318D01*
X004010Y008740D01*
X004020Y008740D01*
X004160Y008880D01*
X004160Y008871D01*
X004560Y008471D01*
X004671Y008360D01*
X004860Y008360D01*
X004860Y008231D01*
X004762Y008231D01*
X004697Y008166D01*
X004697Y007603D01*
X004750Y007550D01*
X004697Y007497D01*
X004697Y006940D01*
X004637Y006940D01*
X004643Y006959D01*
X004643Y007165D01*
X004267Y007165D01*
X004267Y007265D01*
X004167Y007265D01*
X004167Y007345D02*
X004267Y007345D01*
X004267Y007247D02*
X004697Y007247D01*
X004697Y007345D02*
X004643Y007345D01*
X004643Y007444D02*
X004697Y007444D01*
X004742Y007542D02*
X004614Y007542D01*
X004603Y007641D02*
X004697Y007641D01*
X004697Y007739D02*
X004603Y007739D01*
X004603Y007838D02*
X004697Y007838D01*
X004697Y007936D02*
X004603Y007936D01*
X004603Y008035D02*
X004697Y008035D01*
X004697Y008133D02*
X004603Y008133D01*
X004603Y008429D02*
X004010Y008429D01*
X004010Y008527D02*
X004504Y008527D01*
X004406Y008626D02*
X004010Y008626D01*
X004010Y008724D02*
X004307Y008724D01*
X004209Y008823D02*
X004102Y008823D01*
X003850Y009150D02*
X003850Y008252D01*
X004217Y007885D01*
X004167Y007444D02*
X004267Y007444D01*
X004267Y007148D02*
X004167Y007148D01*
X004167Y007050D02*
X004267Y007050D01*
X004267Y006951D02*
X004167Y006951D01*
X004167Y006853D02*
X004267Y006853D01*
X004640Y006951D02*
X004697Y006951D01*
X004697Y007050D02*
X004643Y007050D01*
X004643Y007148D02*
X004697Y007148D01*
X005168Y006163D02*
X003497Y006163D01*
X003497Y006252D02*
X003497Y006064D01*
X003198Y006064D01*
X003198Y005967D01*
X003198Y005649D01*
X003367Y005649D01*
X003405Y005659D01*
X003439Y005679D01*
X003467Y005707D01*
X003487Y005741D01*
X003497Y005779D01*
X003497Y005967D01*
X003198Y005967D01*
X003102Y005967D01*
X003102Y005649D01*
X002933Y005649D01*
X002895Y005659D01*
X002861Y005679D01*
X002840Y005700D01*
X002840Y005629D01*
X003940Y004528D01*
X004005Y004528D01*
X004108Y004486D01*
X004186Y004408D01*
X004228Y004305D01*
X004228Y004195D01*
X004186Y004092D01*
X004108Y004014D01*
X004005Y003972D01*
X003895Y003972D01*
X003792Y004014D01*
X003714Y004092D01*
X003672Y004195D01*
X003672Y004260D01*
X002460Y005471D01*
X002460Y006646D01*
X002414Y006692D01*
X002372Y006795D01*
X002372Y006905D01*
X002414Y007008D01*
X002483Y007076D01*
X002392Y007114D01*
X002314Y007192D01*
X002272Y007295D01*
X002272Y007405D01*
X002314Y007508D01*
X002392Y007586D01*
X002495Y007628D01*
X002605Y007628D01*
X002660Y007606D01*
X002660Y008034D01*
X002110Y007484D01*
X002110Y001984D01*
X002016Y001890D01*
X001560Y001434D01*
X001560Y001180D01*
X001320Y000940D01*
X000980Y000940D01*
X000740Y001180D01*
X000740Y001520D01*
X000980Y001760D01*
X001320Y001760D01*
X001377Y001703D01*
X001790Y002116D01*
X001790Y007616D01*
X002572Y008398D01*
X002572Y008505D01*
X002614Y008608D01*
X002692Y008686D01*
X002795Y008728D01*
X002803Y008728D01*
X002371Y009160D01*
X002260Y009271D01*
X002260Y009499D01*
X002109Y009499D01*
X002045Y009564D01*
X002045Y010167D01*
X002078Y010200D01*
X002045Y010233D01*
X002045Y010836D01*
X002109Y010901D01*
X002460Y010901D01*
X002460Y011729D01*
X002571Y011840D01*
X002740Y012009D01*
X002740Y012320D01*
X002960Y012540D01*
X002960Y012760D01*
X002740Y012980D01*
X002740Y013320D01*
X002980Y013560D01*
X003320Y013560D01*
X003500Y013380D01*
X003800Y013380D01*
X003980Y013560D01*
X004320Y013560D01*
X004500Y013380D01*
X004800Y013380D01*
X004980Y013560D01*
X005320Y013560D01*
X005500Y013380D01*
X005740Y013380D01*
X005740Y013496D01*
X005804Y013560D01*
X006496Y013560D01*
X006560Y013496D01*
X006560Y013380D01*
X007645Y013380D01*
X008380Y012645D01*
X008380Y011760D01*
X008496Y011760D01*
X008560Y011696D01*
X008560Y011004D01*
X008496Y010940D01*
X007804Y010940D01*
X007740Y011004D01*
X007740Y011696D01*
X007769Y011725D01*
X007677Y011725D01*
X007677Y011642D01*
X007612Y011578D01*
X007088Y011578D01*
X007023Y011642D01*
X007023Y012127D01*
X007088Y012191D01*
X007612Y012191D01*
X007677Y012127D01*
X007677Y012045D01*
X007920Y012045D01*
X007920Y012455D01*
X007455Y012920D01*
X006560Y012920D01*
X006560Y012804D01*
X006496Y012740D01*
X006340Y012740D01*
X006340Y012540D01*
X006560Y012320D01*
X006560Y012009D01*
X006840Y011729D01*
X006840Y010856D01*
X006655Y010671D01*
X006655Y010233D01*
X006622Y010200D01*
X006655Y010167D01*
X006655Y010140D01*
X006846Y010140D01*
X006892Y010186D01*
X006995Y010228D01*
X007105Y010228D01*
X007208Y010186D01*
X007286Y010108D01*
X007328Y010005D01*
X007328Y009895D01*
X007286Y009792D01*
X007210Y009716D01*
X007210Y009328D01*
X007305Y009328D01*
X007408Y009286D01*
X007486Y009208D01*
X007528Y009105D01*
X007528Y008995D01*
X007486Y008892D01*
X007408Y008814D01*
X007310Y008773D01*
X007310Y008416D01*
X007710Y008016D01*
X007710Y002546D01*
X007964Y002800D01*
X008100Y002800D01*
X008100Y002400D01*
X008200Y002400D01*
X008200Y002800D01*
X008336Y002800D01*
X008600Y002536D01*
X008600Y002400D01*
X008200Y002400D01*
X008200Y002300D01*
X008600Y002300D01*
X008600Y002164D01*
X008336Y001900D01*
X008200Y001900D01*
X008200Y002300D01*
X008100Y002300D01*
X008100Y001900D01*
X007964Y001900D01*
X007710Y002154D01*
X007710Y002084D01*
X007353Y001727D01*
X007560Y001520D01*
X007560Y001180D01*
X007320Y000940D01*
X006980Y000940D01*
X006810Y001110D01*
X006810Y000884D01*
X006716Y000790D01*
X006576Y000650D01*
X008750Y000650D01*
X008750Y015146D01*
X000550Y015146D01*
X000550Y015127D02*
X008750Y015127D01*
X008750Y015028D02*
X005608Y015028D01*
X005536Y015100D02*
X005400Y015100D01*
X005400Y014700D01*
X005300Y014700D01*
X005300Y015100D01*
X005164Y015100D01*
X004900Y014836D01*
X004900Y014700D01*
X005300Y014700D01*
X005300Y014600D01*
X004900Y014600D01*
X004900Y014464D01*
X005164Y014200D01*
X005300Y014200D01*
X005300Y014600D01*
X005400Y014600D01*
X005400Y014700D01*
X005800Y014700D01*
X005800Y014836D01*
X005536Y015100D01*
X005400Y015028D02*
X005300Y015028D01*
X005300Y014930D02*
X005400Y014930D01*
X005400Y014831D02*
X005300Y014831D01*
X005300Y014733D02*
X005400Y014733D01*
X005400Y014634D02*
X008750Y014634D01*
X008750Y014536D02*
X005800Y014536D01*
X005800Y014600D02*
X005400Y014600D01*
X005400Y014200D01*
X005536Y014200D01*
X005800Y014464D01*
X005800Y014600D01*
X005800Y014733D02*
X008750Y014733D01*
X008750Y014831D02*
X005800Y014831D01*
X005707Y014930D02*
X008750Y014930D01*
X008750Y014437D02*
X005773Y014437D01*
X005675Y014339D02*
X008750Y014339D01*
X008750Y014240D02*
X005576Y014240D01*
X005400Y014240D02*
X005300Y014240D01*
X005300Y014339D02*
X005400Y014339D01*
X005400Y014437D02*
X005300Y014437D01*
X005300Y014536D02*
X005400Y014536D01*
X005300Y014634D02*
X004760Y014634D01*
X004760Y014536D02*
X004900Y014536D01*
X004927Y014437D02*
X004760Y014437D01*
X004760Y014339D02*
X005025Y014339D01*
X005124Y014240D02*
X004696Y014240D01*
X004760Y014304D01*
X004760Y014996D01*
X004696Y015060D01*
X004004Y015060D01*
X003940Y014996D01*
X003940Y014304D01*
X004004Y014240D01*
X000550Y014240D01*
X000550Y014142D02*
X008750Y014142D01*
X008750Y014043D02*
X000550Y014043D01*
X000550Y013945D02*
X008750Y013945D01*
X008750Y013846D02*
X000550Y013846D01*
X000550Y013748D02*
X008750Y013748D01*
X008750Y013649D02*
X000550Y013649D01*
X000550Y013551D02*
X002971Y013551D01*
X002872Y013452D02*
X000550Y013452D01*
X000550Y013354D02*
X002774Y013354D01*
X002740Y013255D02*
X000550Y013255D01*
X000550Y013157D02*
X002740Y013157D01*
X002740Y013058D02*
X000550Y013058D01*
X000550Y012960D02*
X002761Y012960D01*
X002859Y012861D02*
X000550Y012861D01*
X000550Y012763D02*
X002958Y012763D01*
X002960Y012664D02*
X000550Y012664D01*
X000550Y012566D02*
X002960Y012566D01*
X002887Y012467D02*
X000550Y012467D01*
X000550Y012369D02*
X002789Y012369D01*
X002740Y012270D02*
X000550Y012270D01*
X000550Y012172D02*
X002740Y012172D01*
X002740Y012073D02*
X000550Y012073D01*
X000550Y011975D02*
X002706Y011975D01*
X002607Y011876D02*
X000550Y011876D01*
X000550Y011778D02*
X002509Y011778D01*
X002460Y011679D02*
X001560Y011679D01*
X001560Y011696D02*
X001496Y011760D01*
X000804Y011760D01*
X000740Y011696D01*
X000740Y011004D01*
X000804Y010940D01*
X001496Y010940D01*
X001560Y011004D01*
X001560Y011696D01*
X001560Y011581D02*
X002460Y011581D01*
X002460Y011482D02*
X001560Y011482D01*
X001560Y011384D02*
X002460Y011384D01*
X002460Y011285D02*
X001560Y011285D01*
X001560Y011187D02*
X002460Y011187D01*
X002460Y011088D02*
X001560Y011088D01*
X001545Y010990D02*
X002460Y010990D01*
X002100Y010891D02*
X000550Y010891D01*
X000550Y010793D02*
X002045Y010793D01*
X002045Y010694D02*
X001386Y010694D01*
X001320Y010760D02*
X000980Y010760D01*
X000740Y010520D01*
X000740Y010180D01*
X000980Y009940D01*
X001320Y009940D01*
X001560Y010180D01*
X001560Y010520D01*
X001320Y010760D01*
X001484Y010596D02*
X002045Y010596D01*
X002045Y010497D02*
X001560Y010497D01*
X001560Y010399D02*
X002045Y010399D01*
X002045Y010300D02*
X001560Y010300D01*
X001560Y010202D02*
X002076Y010202D01*
X002045Y010103D02*
X001483Y010103D01*
X001384Y010005D02*
X002045Y010005D01*
X002045Y009906D02*
X000550Y009906D01*
X000550Y009808D02*
X002045Y009808D01*
X002045Y009709D02*
X001371Y009709D01*
X001320Y009760D02*
X000980Y009760D01*
X000740Y009520D01*
X000740Y009180D01*
X000980Y008940D01*
X001320Y008940D01*
X001560Y009180D01*
X001560Y009520D01*
X001320Y009760D01*
X001469Y009611D02*
X002045Y009611D01*
X002097Y009512D02*
X001560Y009512D01*
X001560Y009414D02*
X002260Y009414D01*
X002260Y009315D02*
X001560Y009315D01*
X001560Y009217D02*
X002315Y009217D01*
X002413Y009118D02*
X001498Y009118D01*
X001399Y009020D02*
X002512Y009020D01*
X002610Y008921D02*
X000550Y008921D01*
X000550Y008823D02*
X002709Y008823D01*
X002784Y008724D02*
X001356Y008724D01*
X001320Y008760D02*
X000980Y008760D01*
X000740Y008520D01*
X000740Y008180D01*
X000980Y007940D01*
X001320Y007940D01*
X001560Y008180D01*
X001560Y008520D01*
X001320Y008760D01*
X001454Y008626D02*
X002632Y008626D01*
X002581Y008527D02*
X001553Y008527D01*
X001560Y008429D02*
X002572Y008429D01*
X002504Y008330D02*
X001560Y008330D01*
X001560Y008232D02*
X002405Y008232D01*
X002307Y008133D02*
X001513Y008133D01*
X001414Y008035D02*
X002208Y008035D01*
X002110Y007936D02*
X000550Y007936D01*
X000550Y007838D02*
X002011Y007838D01*
X001913Y007739D02*
X001341Y007739D01*
X001320Y007760D02*
X000980Y007760D01*
X000740Y007520D01*
X000740Y007180D01*
X000980Y006940D01*
X001320Y006940D01*
X001560Y007180D01*
X001560Y007520D01*
X001320Y007760D01*
X001439Y007641D02*
X001814Y007641D01*
X001790Y007542D02*
X001538Y007542D01*
X001560Y007444D02*
X001790Y007444D01*
X001790Y007345D02*
X001560Y007345D01*
X001560Y007247D02*
X001790Y007247D01*
X001790Y007148D02*
X001528Y007148D01*
X001429Y007050D02*
X001790Y007050D01*
X001790Y006951D02*
X001331Y006951D01*
X001320Y006760D02*
X000980Y006760D01*
X000740Y006520D01*
X000740Y006180D01*
X000980Y005940D01*
X001320Y005940D01*
X001560Y006180D01*
X001560Y006520D01*
X001320Y006760D01*
X001326Y006754D02*
X001790Y006754D01*
X001790Y006656D02*
X001424Y006656D01*
X001523Y006557D02*
X001790Y006557D01*
X001790Y006459D02*
X001560Y006459D01*
X001560Y006360D02*
X001790Y006360D01*
X001790Y006262D02*
X001560Y006262D01*
X001543Y006163D02*
X001790Y006163D01*
X001790Y006065D02*
X001444Y006065D01*
X001346Y005966D02*
X001790Y005966D01*
X001790Y005868D02*
X000550Y005868D01*
X000550Y005966D02*
X000954Y005966D01*
X000856Y006065D02*
X000550Y006065D01*
X000550Y006163D02*
X000757Y006163D01*
X000740Y006262D02*
X000550Y006262D01*
X000550Y006360D02*
X000740Y006360D01*
X000740Y006459D02*
X000550Y006459D01*
X000550Y006557D02*
X000777Y006557D01*
X000876Y006656D02*
X000550Y006656D01*
X000550Y006754D02*
X000974Y006754D01*
X000969Y006951D02*
X000550Y006951D01*
X000550Y006853D02*
X001790Y006853D01*
X002110Y006853D02*
X002372Y006853D01*
X002390Y006951D02*
X002110Y006951D01*
X002110Y007050D02*
X002456Y007050D01*
X002358Y007148D02*
X002110Y007148D01*
X002110Y007247D02*
X002291Y007247D01*
X002272Y007345D02*
X002110Y007345D01*
X002110Y007444D02*
X002287Y007444D01*
X002348Y007542D02*
X002168Y007542D01*
X002267Y007641D02*
X002660Y007641D01*
X002660Y007739D02*
X002365Y007739D01*
X002464Y007838D02*
X002660Y007838D01*
X002660Y007936D02*
X002562Y007936D01*
X002850Y008450D02*
X001950Y007550D01*
X001950Y002050D01*
X001250Y001350D01*
X001150Y001350D01*
X001421Y001041D02*
X001740Y001041D01*
X001740Y001140D02*
X001519Y001140D01*
X001560Y001238D02*
X001740Y001238D01*
X001757Y001337D02*
X001560Y001337D01*
X001561Y001435D02*
X001855Y001435D01*
X001954Y001534D02*
X001660Y001534D01*
X001758Y001632D02*
X002290Y001632D01*
X002290Y001731D02*
X001857Y001731D01*
X001955Y001829D02*
X002290Y001829D01*
X002290Y001928D02*
X002054Y001928D01*
X002110Y002026D02*
X002290Y002026D01*
X002290Y002125D02*
X002110Y002125D01*
X002110Y002223D02*
X002297Y002223D01*
X002395Y002322D02*
X002110Y002322D01*
X002110Y002420D02*
X002494Y002420D01*
X002592Y002519D02*
X002110Y002519D01*
X002110Y002617D02*
X002691Y002617D01*
X002605Y002772D02*
X002708Y002814D01*
X003390Y002814D01*
X003390Y002716D02*
X002110Y002716D01*
X002110Y002814D02*
X002392Y002814D01*
X002495Y002772D01*
X002605Y002772D01*
X002708Y002814D02*
X002786Y002892D01*
X002828Y002995D01*
X002828Y003105D01*
X002786Y003208D01*
X003390Y003208D01*
X003390Y003110D02*
X002827Y003110D01*
X002828Y003011D02*
X003390Y003011D01*
X003390Y002913D02*
X002794Y002913D01*
X002786Y003208D02*
X002785Y003209D01*
X002812Y003209D01*
X002877Y003273D01*
X002877Y003758D01*
X002812Y003822D01*
X002288Y003822D01*
X002223Y003758D01*
X002223Y003273D01*
X002288Y003209D01*
X002315Y003209D01*
X002314Y003208D01*
X002110Y003208D01*
X002110Y003110D02*
X002273Y003110D01*
X002272Y003105D02*
X002272Y002995D01*
X002314Y002892D01*
X002392Y002814D01*
X002306Y002913D02*
X002110Y002913D01*
X002110Y003011D02*
X002272Y003011D01*
X002272Y003105D02*
X002314Y003208D01*
X002223Y003307D02*
X002110Y003307D01*
X002110Y003405D02*
X002223Y003405D01*
X002223Y003504D02*
X002110Y003504D01*
X002110Y003602D02*
X002223Y003602D01*
X002223Y003701D02*
X002110Y003701D01*
X002110Y003799D02*
X002265Y003799D01*
X002276Y003848D02*
X002314Y003838D01*
X002502Y003838D01*
X002502Y004136D01*
X002598Y004136D01*
X002598Y003838D01*
X002786Y003838D01*
X002824Y003848D01*
X002859Y003868D01*
X002887Y003896D01*
X002906Y003930D01*
X002917Y003968D01*
X002917Y004136D01*
X002598Y004136D01*
X002598Y004233D01*
X002502Y004233D01*
X002502Y004531D01*
X002314Y004531D01*
X002276Y004521D01*
X002241Y004502D01*
X002213Y004474D01*
X002194Y004439D01*
X002183Y004401D01*
X002183Y004233D01*
X002502Y004233D01*
X002502Y004136D01*
X002183Y004136D01*
X002183Y003968D01*
X002194Y003930D01*
X002213Y003896D01*
X002241Y003868D01*
X002276Y003848D01*
X002212Y003898D02*
X002110Y003898D01*
X002110Y003996D02*
X002183Y003996D01*
X002183Y004095D02*
X002110Y004095D01*
X002110Y004193D02*
X002502Y004193D01*
X002598Y004193D02*
X003672Y004193D01*
X003640Y004292D02*
X002917Y004292D01*
X002917Y004233D02*
X002917Y004401D01*
X002906Y004439D01*
X002887Y004474D01*
X002859Y004502D01*
X002824Y004521D01*
X002786Y004531D01*
X002598Y004531D01*
X002598Y004233D01*
X002917Y004233D01*
X002917Y004095D02*
X003713Y004095D01*
X003684Y003996D02*
X003836Y003996D01*
X003790Y003898D02*
X005876Y003898D01*
X005890Y003799D02*
X004583Y003799D01*
X004570Y003806D02*
X004532Y003817D01*
X004364Y003817D01*
X004364Y003498D01*
X004662Y003498D01*
X004662Y003686D01*
X004652Y003724D01*
X004632Y003759D01*
X004604Y003787D01*
X004570Y003806D01*
X004658Y003701D02*
X004678Y003701D01*
X004678Y003712D02*
X004678Y003188D01*
X004742Y003123D01*
X004990Y003123D01*
X004995Y003122D01*
X005105Y003122D01*
X005110Y003123D01*
X005227Y003123D01*
X005291Y003188D01*
X005291Y003255D01*
X005328Y003345D01*
X005328Y003455D01*
X005291Y003545D01*
X005291Y003712D01*
X005227Y003777D01*
X004742Y003777D01*
X004678Y003712D01*
X004678Y003602D02*
X004662Y003602D01*
X004662Y003504D02*
X004678Y003504D01*
X004678Y003405D02*
X004364Y003405D01*
X004364Y003402D02*
X004364Y003498D01*
X004267Y003498D01*
X004267Y003402D01*
X003969Y003402D01*
X003969Y003214D01*
X003979Y003176D01*
X003998Y003141D01*
X004026Y003113D01*
X004061Y003094D01*
X004099Y003083D01*
X004267Y003083D01*
X004267Y003402D01*
X004364Y003402D01*
X004662Y003402D01*
X004662Y003214D01*
X004652Y003176D01*
X004632Y003141D01*
X004604Y003113D01*
X004570Y003094D01*
X004532Y003083D01*
X004364Y003083D01*
X004364Y003402D01*
X004364Y003307D02*
X004267Y003307D01*
X004267Y003405D02*
X003710Y003405D01*
X003710Y003307D02*
X003969Y003307D01*
X003970Y003208D02*
X003710Y003208D01*
X003710Y003110D02*
X004033Y003110D01*
X004267Y003110D02*
X004364Y003110D01*
X004364Y003208D02*
X004267Y003208D01*
X004267Y003498D02*
X003969Y003498D01*
X003969Y003686D01*
X003979Y003724D01*
X003998Y003759D01*
X004026Y003787D01*
X004061Y003806D01*
X004099Y003817D01*
X004267Y003817D01*
X004267Y003498D01*
X004267Y003504D02*
X004364Y003504D01*
X004364Y003602D02*
X004267Y003602D01*
X004267Y003701D02*
X004364Y003701D01*
X004364Y003799D02*
X004267Y003799D01*
X004187Y004095D02*
X004449Y004095D01*
X004449Y004193D02*
X004228Y004193D01*
X004228Y004292D02*
X004767Y004292D01*
X004767Y004390D02*
X004864Y004390D01*
X004864Y004489D02*
X004767Y004489D01*
X004767Y004587D02*
X004864Y004587D01*
X005088Y004587D02*
X005260Y004587D01*
X005260Y004686D02*
X003783Y004686D01*
X003685Y004784D02*
X005260Y004784D01*
X005260Y004883D02*
X003586Y004883D01*
X003488Y004981D02*
X005260Y004981D01*
X005260Y005080D02*
X003389Y005080D01*
X003291Y005178D02*
X005260Y005178D01*
X005260Y005277D02*
X003192Y005277D01*
X003094Y005375D02*
X005260Y005375D01*
X005260Y005474D02*
X002995Y005474D01*
X002897Y005572D02*
X005260Y005572D01*
X005302Y005671D02*
X003425Y005671D01*
X003494Y005769D02*
X005360Y005769D01*
X005360Y005868D02*
X003497Y005868D01*
X003497Y005966D02*
X005360Y005966D01*
X005267Y006065D02*
X003497Y006065D01*
X003198Y005966D02*
X003102Y005966D01*
X003102Y005868D02*
X003198Y005868D01*
X003198Y005769D02*
X003102Y005769D01*
X003102Y005671D02*
X003198Y005671D01*
X002875Y005671D02*
X002840Y005671D01*
X002655Y005277D02*
X002110Y005277D01*
X002110Y005375D02*
X002556Y005375D01*
X002460Y005474D02*
X002110Y005474D01*
X002110Y005572D02*
X002460Y005572D01*
X002460Y005671D02*
X002110Y005671D01*
X002110Y005769D02*
X002460Y005769D01*
X002460Y005868D02*
X002110Y005868D01*
X002110Y005966D02*
X002460Y005966D01*
X002460Y006065D02*
X002110Y006065D01*
X002110Y006163D02*
X002460Y006163D01*
X002460Y006262D02*
X002110Y006262D01*
X002110Y006360D02*
X002460Y006360D01*
X002460Y006459D02*
X002110Y006459D01*
X002110Y006557D02*
X002460Y006557D01*
X002451Y006656D02*
X002110Y006656D01*
X002110Y006754D02*
X002388Y006754D01*
X001790Y005769D02*
X000550Y005769D01*
X000550Y005671D02*
X000891Y005671D01*
X000980Y005760D02*
X000740Y005520D01*
X000740Y005180D01*
X000980Y004940D01*
X001320Y004940D01*
X001560Y005180D01*
X001560Y005520D01*
X001320Y005760D01*
X000980Y005760D01*
X000792Y005572D02*
X000550Y005572D01*
X000550Y005474D02*
X000740Y005474D01*
X000740Y005375D02*
X000550Y005375D01*
X000550Y005277D02*
X000740Y005277D01*
X000742Y005178D02*
X000550Y005178D01*
X000550Y005080D02*
X000841Y005080D01*
X000939Y004981D02*
X000550Y004981D01*
X000550Y004883D02*
X001790Y004883D01*
X001790Y004981D02*
X001361Y004981D01*
X001459Y005080D02*
X001790Y005080D01*
X001790Y005178D02*
X001558Y005178D01*
X001560Y005277D02*
X001790Y005277D01*
X001790Y005375D02*
X001560Y005375D01*
X001560Y005474D02*
X001790Y005474D01*
X001790Y005572D02*
X001508Y005572D01*
X001409Y005671D02*
X001790Y005671D01*
X002110Y005178D02*
X002753Y005178D01*
X002852Y005080D02*
X002110Y005080D01*
X002110Y004981D02*
X002950Y004981D01*
X003049Y004883D02*
X002110Y004883D01*
X002110Y004784D02*
X003147Y004784D01*
X003246Y004686D02*
X002110Y004686D01*
X002110Y004587D02*
X003344Y004587D01*
X003443Y004489D02*
X002872Y004489D01*
X002917Y004390D02*
X003541Y004390D01*
X003416Y003996D02*
X002917Y003996D01*
X002888Y003898D02*
X003310Y003898D01*
X003272Y003799D02*
X002835Y003799D01*
X002877Y003701D02*
X003272Y003701D01*
X003310Y003602D02*
X002877Y003602D01*
X002877Y003504D02*
X003390Y003504D01*
X003390Y003405D02*
X002877Y003405D01*
X002877Y003307D02*
X003390Y003307D01*
X003550Y003750D02*
X003550Y002550D01*
X004315Y002550D01*
X004715Y002950D01*
X005450Y002950D01*
X006050Y003550D01*
X006050Y003950D01*
X005700Y004300D01*
X005650Y004300D01*
X005535Y004300D01*
X005485Y004250D01*
X005291Y003701D02*
X005890Y003701D01*
X005876Y003602D02*
X005291Y003602D01*
X005308Y003504D02*
X005777Y003504D01*
X005679Y003405D02*
X005328Y003405D01*
X005313Y003307D02*
X005580Y003307D01*
X005482Y003208D02*
X005291Y003208D01*
X005050Y003400D02*
X004985Y003450D01*
X004678Y003307D02*
X004662Y003307D01*
X004661Y003208D02*
X004678Y003208D01*
X004649Y003110D02*
X004598Y003110D01*
X004550Y003011D02*
X003710Y003011D01*
X003710Y002913D02*
X004452Y002913D01*
X004622Y002617D02*
X004678Y002617D01*
X004678Y002519D02*
X004622Y002519D01*
X004622Y002420D02*
X004678Y002420D01*
X004678Y002322D02*
X004622Y002322D01*
X004800Y002026D02*
X002610Y002026D01*
X002610Y001928D02*
X003501Y001928D01*
X003403Y001829D02*
X002610Y001829D01*
X002610Y001731D02*
X002951Y001731D01*
X002852Y001632D02*
X002610Y001632D01*
X002610Y001534D02*
X002754Y001534D01*
X002740Y001435D02*
X002561Y001435D01*
X002543Y001337D02*
X002740Y001337D01*
X002740Y001238D02*
X002560Y001238D01*
X002560Y001140D02*
X002781Y001140D01*
X002879Y001041D02*
X002560Y001041D01*
X002522Y000943D02*
X002978Y000943D01*
X003322Y000943D02*
X003721Y000943D01*
X003700Y000964D02*
X003964Y000700D01*
X004100Y000700D01*
X004100Y001100D01*
X003700Y001100D01*
X003700Y000964D01*
X003700Y001041D02*
X003421Y001041D01*
X003519Y001140D02*
X004100Y001140D01*
X004100Y001100D02*
X004100Y001200D01*
X004100Y001600D01*
X003964Y001600D01*
X003700Y001336D01*
X003700Y001200D01*
X004100Y001200D01*
X004200Y001200D01*
X004200Y001600D01*
X004336Y001600D01*
X004600Y001336D01*
X004600Y001200D01*
X004200Y001200D01*
X004200Y001100D01*
X004600Y001100D01*
X004600Y000964D01*
X004336Y000700D01*
X004200Y000700D01*
X004200Y001100D01*
X004100Y001100D01*
X004100Y001041D02*
X004200Y001041D01*
X004200Y000943D02*
X004100Y000943D01*
X004100Y000844D02*
X004200Y000844D01*
X004200Y000746D02*
X004100Y000746D01*
X003918Y000746D02*
X002325Y000746D01*
X002424Y000844D02*
X003820Y000844D01*
X003700Y001238D02*
X003560Y001238D01*
X003560Y001337D02*
X003700Y001337D01*
X003799Y001435D02*
X003560Y001435D01*
X003560Y001534D02*
X003897Y001534D01*
X004100Y001534D02*
X004200Y001534D01*
X004200Y001435D02*
X004100Y001435D01*
X004100Y001337D02*
X004200Y001337D01*
X004200Y001238D02*
X004100Y001238D01*
X004200Y001140D02*
X004781Y001140D01*
X004740Y001238D02*
X004600Y001238D01*
X004600Y001337D02*
X004740Y001337D01*
X004740Y001435D02*
X004501Y001435D01*
X004403Y001534D02*
X004754Y001534D01*
X004852Y001632D02*
X003658Y001632D01*
X003650Y001850D02*
X006250Y001850D01*
X006950Y002550D01*
X006950Y005450D01*
X006150Y006250D01*
X006150Y008050D01*
X006450Y008350D01*
X006450Y008650D01*
X006750Y008950D01*
X006750Y009550D01*
X006590Y009316D02*
X006590Y009016D01*
X006290Y008716D01*
X006290Y008416D01*
X005990Y008116D01*
X005990Y006184D01*
X006060Y006114D01*
X005992Y006086D01*
X005990Y006084D01*
X005990Y008179D01*
X005879Y008290D01*
X005540Y008629D01*
X005540Y008700D01*
X005800Y008700D01*
X005800Y009100D01*
X005900Y009100D01*
X005900Y009200D01*
X006300Y009200D01*
X006300Y009470D01*
X006292Y009499D01*
X006472Y009499D01*
X006472Y009495D01*
X006514Y009392D01*
X006590Y009316D01*
X006590Y009315D02*
X006300Y009315D01*
X006300Y009217D02*
X006590Y009217D01*
X006590Y009118D02*
X005900Y009118D01*
X005900Y009100D02*
X006300Y009100D01*
X006300Y008830D01*
X006290Y008792D01*
X006270Y008758D01*
X006242Y008730D01*
X006208Y008710D01*
X006170Y008700D01*
X005900Y008700D01*
X005900Y009100D01*
X005900Y009020D02*
X005800Y009020D01*
X005800Y008921D02*
X005900Y008921D01*
X005900Y008823D02*
X005800Y008823D01*
X005800Y008724D02*
X005900Y008724D01*
X005740Y008429D02*
X006290Y008429D01*
X006290Y008527D02*
X005642Y008527D01*
X005543Y008626D02*
X006290Y008626D01*
X006298Y008724D02*
X006232Y008724D01*
X006298Y008823D02*
X006396Y008823D01*
X006300Y008921D02*
X006495Y008921D01*
X006590Y009020D02*
X006300Y009020D01*
X006300Y009414D02*
X006505Y009414D01*
X006950Y009250D02*
X006950Y008850D01*
X006650Y008550D01*
X006650Y008250D01*
X006350Y007950D01*
X006350Y006450D01*
X006550Y006250D01*
X006650Y006750D02*
X006885Y006750D01*
X006950Y006715D01*
X006950Y006550D01*
X007150Y006350D01*
X007150Y002450D01*
X006150Y001450D01*
X006150Y001150D01*
X006400Y000700D02*
X005800Y000700D01*
X005150Y001350D01*
X004879Y001041D02*
X004600Y001041D01*
X004579Y000943D02*
X004978Y000943D01*
X005322Y000943D02*
X005331Y000943D01*
X005430Y000844D02*
X004480Y000844D01*
X004382Y000746D02*
X005528Y000746D01*
X005293Y002010D02*
X005328Y002095D01*
X005328Y002205D01*
X005291Y002295D01*
X005291Y002390D01*
X005416Y002390D01*
X006516Y003490D01*
X006590Y003564D01*
X006590Y003027D01*
X006492Y002986D01*
X006414Y002908D01*
X006372Y002805D01*
X006372Y002695D01*
X006414Y002592D01*
X006492Y002514D01*
X006595Y002472D01*
X006645Y002472D01*
X006184Y002010D01*
X005293Y002010D01*
X005300Y002026D02*
X006200Y002026D01*
X006298Y002125D02*
X005328Y002125D01*
X005321Y002223D02*
X006397Y002223D01*
X006495Y002322D02*
X005291Y002322D01*
X005446Y002420D02*
X006594Y002420D01*
X006488Y002519D02*
X005545Y002519D01*
X005643Y002617D02*
X006404Y002617D01*
X006372Y002716D02*
X005742Y002716D01*
X005840Y002814D02*
X006375Y002814D01*
X006419Y002913D02*
X005939Y002913D01*
X006037Y003011D02*
X006553Y003011D01*
X006590Y003110D02*
X006136Y003110D01*
X006234Y003208D02*
X006590Y003208D01*
X006590Y003307D02*
X006333Y003307D01*
X006431Y003405D02*
X006590Y003405D01*
X006590Y003504D02*
X006530Y003504D01*
X006450Y003650D02*
X006450Y004650D01*
X006750Y005250D02*
X006750Y002850D01*
X006650Y002750D01*
X006450Y003650D02*
X005350Y002550D01*
X004985Y002550D01*
X004985Y002215D01*
X005050Y002150D01*
X004009Y002322D02*
X002848Y002322D01*
X002850Y002550D02*
X002450Y002150D01*
X002450Y001550D01*
X002150Y001250D01*
X002150Y001150D01*
X001876Y000844D02*
X000550Y000844D01*
X000550Y000746D02*
X001975Y000746D01*
X001778Y000943D02*
X001322Y000943D01*
X000978Y000943D02*
X000550Y000943D01*
X000550Y001041D02*
X000879Y001041D01*
X000781Y001140D02*
X000550Y001140D01*
X000550Y001238D02*
X000740Y001238D01*
X000740Y001337D02*
X000550Y001337D01*
X000550Y001435D02*
X000740Y001435D01*
X000754Y001534D02*
X000550Y001534D01*
X000550Y001632D02*
X000852Y001632D01*
X000951Y001731D02*
X000550Y001731D01*
X000550Y001829D02*
X001503Y001829D01*
X001601Y001928D02*
X001364Y001928D01*
X001336Y001900D02*
X001600Y002164D01*
X001600Y002300D01*
X001200Y002300D01*
X001200Y002400D01*
X001600Y002400D01*
X001600Y002536D01*
X001336Y002800D01*
X001200Y002800D01*
X001200Y002400D01*
X001100Y002400D01*
X001100Y002800D01*
X000964Y002800D01*
X000700Y002536D01*
X000700Y002400D01*
X001100Y002400D01*
X001100Y002300D01*
X001200Y002300D01*
X001200Y001900D01*
X001336Y001900D01*
X001462Y002026D02*
X001700Y002026D01*
X001790Y002125D02*
X001561Y002125D01*
X001600Y002223D02*
X001790Y002223D01*
X001790Y002322D02*
X001200Y002322D01*
X001200Y002420D02*
X001100Y002420D01*
X001100Y002322D02*
X000550Y002322D01*
X000550Y002420D02*
X000700Y002420D01*
X000700Y002519D02*
X000550Y002519D01*
X000550Y002617D02*
X000781Y002617D01*
X000879Y002716D02*
X000550Y002716D01*
X000550Y002814D02*
X001790Y002814D01*
X001790Y002716D02*
X001421Y002716D01*
X001519Y002617D02*
X001790Y002617D01*
X001790Y002519D02*
X001600Y002519D01*
X001600Y002420D02*
X001790Y002420D01*
X001790Y002913D02*
X000550Y002913D01*
X000550Y003011D02*
X000909Y003011D01*
X000980Y002940D02*
X001320Y002940D01*
X001560Y003180D01*
X001560Y003520D01*
X001320Y003760D01*
X000980Y003760D01*
X000740Y003520D01*
X000740Y003180D01*
X000980Y002940D01*
X001100Y002716D02*
X001200Y002716D01*
X001200Y002617D02*
X001100Y002617D01*
X001100Y002519D02*
X001200Y002519D01*
X001100Y002300D02*
X000700Y002300D01*
X000700Y002164D01*
X000964Y001900D01*
X001100Y001900D01*
X001100Y002300D01*
X001100Y002223D02*
X001200Y002223D01*
X001200Y002125D02*
X001100Y002125D01*
X001100Y002026D02*
X001200Y002026D01*
X001200Y001928D02*
X001100Y001928D01*
X000936Y001928D02*
X000550Y001928D01*
X000550Y002026D02*
X000838Y002026D01*
X000739Y002125D02*
X000550Y002125D01*
X000550Y002223D02*
X000700Y002223D01*
X000811Y003110D02*
X000550Y003110D01*
X000550Y003208D02*
X000740Y003208D01*
X000740Y003307D02*
X000550Y003307D01*
X000550Y003405D02*
X000740Y003405D01*
X000740Y003504D02*
X000550Y003504D01*
X000550Y003602D02*
X000822Y003602D01*
X000921Y003701D02*
X000550Y003701D01*
X000550Y003799D02*
X001790Y003799D01*
X001790Y003701D02*
X001379Y003701D01*
X001478Y003602D02*
X001790Y003602D01*
X001790Y003504D02*
X001560Y003504D01*
X001560Y003405D02*
X001790Y003405D01*
X001790Y003307D02*
X001560Y003307D01*
X001560Y003208D02*
X001790Y003208D01*
X001790Y003110D02*
X001489Y003110D01*
X001391Y003011D02*
X001790Y003011D01*
X001790Y003898D02*
X000550Y003898D01*
X000550Y003996D02*
X000924Y003996D01*
X000980Y003940D02*
X001320Y003940D01*
X001560Y004180D01*
X001560Y004520D01*
X001320Y004760D01*
X000980Y004760D01*
X000740Y004520D01*
X000740Y004180D01*
X000980Y003940D01*
X000826Y004095D02*
X000550Y004095D01*
X000550Y004193D02*
X000740Y004193D01*
X000740Y004292D02*
X000550Y004292D01*
X000550Y004390D02*
X000740Y004390D01*
X000740Y004489D02*
X000550Y004489D01*
X000550Y004587D02*
X000807Y004587D01*
X000906Y004686D02*
X000550Y004686D01*
X000550Y004784D02*
X001790Y004784D01*
X001790Y004686D02*
X001394Y004686D01*
X001493Y004587D02*
X001790Y004587D01*
X001790Y004489D02*
X001560Y004489D01*
X001560Y004390D02*
X001790Y004390D01*
X001790Y004292D02*
X001560Y004292D01*
X001560Y004193D02*
X001790Y004193D01*
X001790Y004095D02*
X001474Y004095D01*
X001376Y003996D02*
X001790Y003996D01*
X002110Y004292D02*
X002183Y004292D01*
X002183Y004390D02*
X002110Y004390D01*
X002110Y004489D02*
X002228Y004489D01*
X002502Y004489D02*
X002598Y004489D01*
X002598Y004390D02*
X002502Y004390D01*
X002502Y004292D02*
X002598Y004292D01*
X002598Y004095D02*
X002502Y004095D01*
X002502Y003996D02*
X002598Y003996D01*
X002598Y003898D02*
X002502Y003898D01*
X002550Y003515D02*
X002550Y003050D01*
X002850Y002550D02*
X003550Y002550D01*
X003710Y002716D02*
X004009Y002716D01*
X004010Y002814D02*
X003710Y002814D01*
X003710Y003504D02*
X003969Y003504D01*
X003969Y003602D02*
X003790Y003602D01*
X003828Y003701D02*
X003972Y003701D01*
X004048Y003799D02*
X003828Y003799D01*
X004064Y003996D02*
X004459Y003996D01*
X004449Y004390D02*
X004193Y004390D01*
X004102Y004489D02*
X004455Y004489D01*
X004542Y004587D02*
X003882Y004587D01*
X004767Y004193D02*
X004864Y004193D01*
X004864Y004095D02*
X004767Y004095D01*
X004767Y003996D02*
X004864Y003996D01*
X006150Y005850D02*
X006750Y005250D01*
X006011Y006163D02*
X005990Y006163D01*
X005990Y006262D02*
X005990Y006262D01*
X005990Y006360D02*
X005990Y006360D01*
X005990Y006459D02*
X005990Y006459D01*
X005990Y006557D02*
X005990Y006557D01*
X005990Y006656D02*
X005990Y006656D01*
X005990Y006754D02*
X005990Y006754D01*
X005990Y006853D02*
X005990Y006853D01*
X005990Y006951D02*
X005990Y006951D01*
X005990Y007050D02*
X005990Y007050D01*
X005990Y007148D02*
X005990Y007148D01*
X005990Y007247D02*
X005990Y007247D01*
X005990Y007345D02*
X005990Y007345D01*
X005990Y007444D02*
X005990Y007444D01*
X005990Y007542D02*
X005990Y007542D01*
X005990Y007641D02*
X005990Y007641D01*
X005990Y007739D02*
X005990Y007739D01*
X005990Y007838D02*
X005990Y007838D01*
X005990Y007936D02*
X005990Y007936D01*
X005990Y008035D02*
X005990Y008035D01*
X005990Y008133D02*
X006007Y008133D01*
X005937Y008232D02*
X006105Y008232D01*
X006204Y008330D02*
X005839Y008330D01*
X006510Y007884D02*
X006686Y008060D01*
X006714Y007992D01*
X006792Y007914D01*
X006895Y007872D01*
X007005Y007872D01*
X007074Y007900D01*
X007190Y007784D01*
X007190Y007730D01*
X007186Y007731D01*
X006998Y007731D01*
X006998Y007433D01*
X006902Y007433D01*
X006902Y007731D01*
X006714Y007731D01*
X006676Y007721D01*
X006641Y007702D01*
X006613Y007674D01*
X006594Y007639D01*
X006583Y007601D01*
X006583Y007433D01*
X006902Y007433D01*
X006902Y007336D01*
X006998Y007336D01*
X006998Y007038D01*
X007186Y007038D01*
X007190Y007039D01*
X007190Y007022D01*
X006720Y007022D01*
X006705Y007028D01*
X006595Y007028D01*
X006510Y006993D01*
X006510Y007884D01*
X006510Y007838D02*
X007136Y007838D01*
X007190Y007739D02*
X006510Y007739D01*
X006510Y007641D02*
X006594Y007641D01*
X006583Y007542D02*
X006510Y007542D01*
X006510Y007444D02*
X006583Y007444D01*
X006583Y007336D02*
X006583Y007168D01*
X006594Y007130D01*
X006613Y007096D01*
X006641Y007068D01*
X006676Y007048D01*
X006714Y007038D01*
X006902Y007038D01*
X006902Y007336D01*
X006583Y007336D01*
X006510Y007345D02*
X006902Y007345D01*
X006902Y007247D02*
X006998Y007247D01*
X006998Y007148D02*
X006902Y007148D01*
X006902Y007050D02*
X006998Y007050D01*
X006673Y007050D02*
X006510Y007050D01*
X006510Y007148D02*
X006589Y007148D01*
X006583Y007247D02*
X006510Y007247D01*
X006902Y007444D02*
X006998Y007444D01*
X006998Y007542D02*
X006902Y007542D01*
X006902Y007641D02*
X006998Y007641D01*
X006770Y007936D02*
X006562Y007936D01*
X006661Y008035D02*
X006696Y008035D01*
X007050Y008150D02*
X007350Y007850D01*
X007350Y002300D01*
X006650Y001600D01*
X006650Y000950D01*
X006400Y000700D01*
X006672Y000746D02*
X007975Y000746D01*
X007980Y000740D02*
X008320Y000740D01*
X008560Y000980D01*
X008560Y001320D01*
X008320Y001560D01*
X007980Y001560D01*
X007740Y001320D01*
X007740Y000980D01*
X007980Y000740D01*
X007876Y000844D02*
X006770Y000844D01*
X006810Y000943D02*
X006978Y000943D01*
X006879Y001041D02*
X006810Y001041D01*
X007150Y001350D02*
X007150Y001750D01*
X007550Y002150D01*
X007550Y007950D01*
X007150Y008350D01*
X007150Y008950D01*
X007250Y009050D01*
X007338Y009315D02*
X007540Y009315D01*
X007540Y009217D02*
X007477Y009217D01*
X007523Y009118D02*
X007540Y009118D01*
X007528Y009020D02*
X007540Y009020D01*
X007540Y008921D02*
X007498Y008921D01*
X007540Y008834D02*
X007797Y008577D01*
X007740Y008520D01*
X007740Y008180D01*
X007980Y007940D01*
X008320Y007940D01*
X008560Y008180D01*
X008560Y008520D01*
X008320Y008760D01*
X008066Y008760D01*
X007860Y008966D01*
X007860Y009060D01*
X007980Y008940D01*
X008320Y008940D01*
X008560Y009180D01*
X008560Y009520D01*
X008320Y009760D01*
X007980Y009760D01*
X007860Y009640D01*
X007860Y009866D01*
X007766Y009960D01*
X007710Y010016D01*
X007710Y011082D01*
X007677Y011115D01*
X007677Y011458D01*
X007612Y011522D01*
X007088Y011522D01*
X007023Y011458D01*
X007023Y010973D01*
X007088Y010909D01*
X007390Y010909D01*
X007390Y009884D01*
X007484Y009790D01*
X007540Y009734D01*
X007540Y008834D01*
X007551Y008823D02*
X007416Y008823D01*
X007310Y008724D02*
X007650Y008724D01*
X007748Y008626D02*
X007310Y008626D01*
X007310Y008527D02*
X007747Y008527D01*
X007740Y008429D02*
X007310Y008429D01*
X007396Y008330D02*
X007740Y008330D01*
X007740Y008232D02*
X007495Y008232D01*
X007593Y008133D02*
X007787Y008133D01*
X007692Y008035D02*
X007886Y008035D01*
X007980Y007760D02*
X007740Y007520D01*
X007740Y007180D01*
X007980Y006940D01*
X008320Y006940D01*
X008560Y007180D01*
X008560Y007520D01*
X008320Y007760D01*
X007980Y007760D01*
X007959Y007739D02*
X007710Y007739D01*
X007710Y007641D02*
X007861Y007641D01*
X007762Y007542D02*
X007710Y007542D01*
X007710Y007444D02*
X007740Y007444D01*
X007740Y007345D02*
X007710Y007345D01*
X007710Y007247D02*
X007740Y007247D01*
X007710Y007148D02*
X007772Y007148D01*
X007710Y007050D02*
X007871Y007050D01*
X007969Y006951D02*
X007710Y006951D01*
X007710Y006853D02*
X008750Y006853D01*
X008750Y006951D02*
X008331Y006951D01*
X008429Y007050D02*
X008750Y007050D01*
X008750Y007148D02*
X008528Y007148D01*
X008560Y007247D02*
X008750Y007247D01*
X008750Y007345D02*
X008560Y007345D01*
X008560Y007444D02*
X008750Y007444D01*
X008750Y007542D02*
X008538Y007542D01*
X008439Y007641D02*
X008750Y007641D01*
X008750Y007739D02*
X008341Y007739D01*
X008414Y008035D02*
X008750Y008035D01*
X008750Y008133D02*
X008513Y008133D01*
X008560Y008232D02*
X008750Y008232D01*
X008750Y008330D02*
X008560Y008330D01*
X008560Y008429D02*
X008750Y008429D01*
X008750Y008527D02*
X008553Y008527D01*
X008454Y008626D02*
X008750Y008626D01*
X008750Y008724D02*
X008356Y008724D01*
X008399Y009020D02*
X008750Y009020D01*
X008750Y009118D02*
X008498Y009118D01*
X008560Y009217D02*
X008750Y009217D01*
X008750Y009315D02*
X008560Y009315D01*
X008560Y009414D02*
X008750Y009414D01*
X008750Y009512D02*
X008560Y009512D01*
X008469Y009611D02*
X008750Y009611D01*
X008750Y009709D02*
X008371Y009709D01*
X008320Y009940D02*
X008560Y010180D01*
X008560Y010520D01*
X008320Y010760D01*
X007980Y010760D01*
X007740Y010520D01*
X007740Y010180D01*
X007980Y009940D01*
X008320Y009940D01*
X008384Y010005D02*
X008750Y010005D01*
X008750Y010103D02*
X008483Y010103D01*
X008560Y010202D02*
X008750Y010202D01*
X008750Y010300D02*
X008560Y010300D01*
X008560Y010399D02*
X008750Y010399D01*
X008750Y010497D02*
X008560Y010497D01*
X008484Y010596D02*
X008750Y010596D01*
X008750Y010694D02*
X008386Y010694D01*
X008545Y010990D02*
X008750Y010990D01*
X008750Y011088D02*
X008560Y011088D01*
X008560Y011187D02*
X008750Y011187D01*
X008750Y011285D02*
X008560Y011285D01*
X008560Y011384D02*
X008750Y011384D01*
X008750Y011482D02*
X008560Y011482D01*
X008560Y011581D02*
X008750Y011581D01*
X008750Y011679D02*
X008560Y011679D01*
X008380Y011778D02*
X008750Y011778D01*
X008750Y011876D02*
X008380Y011876D01*
X008380Y011975D02*
X008750Y011975D01*
X008750Y012073D02*
X008380Y012073D01*
X008380Y012172D02*
X008750Y012172D01*
X008750Y012270D02*
X008380Y012270D01*
X008380Y012369D02*
X008750Y012369D01*
X008750Y012467D02*
X008380Y012467D01*
X008380Y012566D02*
X008750Y012566D01*
X008750Y012664D02*
X008361Y012664D01*
X008263Y012763D02*
X008750Y012763D01*
X008750Y012861D02*
X008164Y012861D01*
X008066Y012960D02*
X008750Y012960D01*
X008750Y013058D02*
X007967Y013058D01*
X007869Y013157D02*
X008750Y013157D01*
X008750Y013255D02*
X007770Y013255D01*
X007672Y013354D02*
X008750Y013354D01*
X008750Y013452D02*
X006560Y013452D01*
X006505Y013551D02*
X008750Y013551D01*
X007908Y012467D02*
X006413Y012467D01*
X006340Y012566D02*
X007809Y012566D01*
X007711Y012664D02*
X006340Y012664D01*
X006518Y012763D02*
X007612Y012763D01*
X007514Y012861D02*
X006560Y012861D01*
X006511Y012369D02*
X007920Y012369D01*
X007920Y012270D02*
X006560Y012270D01*
X006560Y012172D02*
X007068Y012172D01*
X007023Y012073D02*
X006560Y012073D01*
X006594Y011975D02*
X007023Y011975D01*
X007023Y011876D02*
X006693Y011876D01*
X006791Y011778D02*
X007023Y011778D01*
X007023Y011679D02*
X006840Y011679D01*
X006840Y011581D02*
X007085Y011581D01*
X007048Y011482D02*
X006840Y011482D01*
X006840Y011384D02*
X007023Y011384D01*
X007023Y011285D02*
X006840Y011285D01*
X006840Y011187D02*
X007023Y011187D01*
X007023Y011088D02*
X006840Y011088D01*
X006840Y010990D02*
X007023Y010990D01*
X006840Y010891D02*
X007390Y010891D01*
X007390Y010793D02*
X006777Y010793D01*
X006678Y010694D02*
X007390Y010694D01*
X007390Y010596D02*
X006655Y010596D01*
X006655Y010497D02*
X007390Y010497D01*
X007390Y010399D02*
X006655Y010399D01*
X006655Y010300D02*
X007390Y010300D01*
X007390Y010202D02*
X007170Y010202D01*
X007288Y010103D02*
X007390Y010103D01*
X007390Y010005D02*
X007328Y010005D01*
X007328Y009906D02*
X007390Y009906D01*
X007466Y009808D02*
X007292Y009808D01*
X007210Y009709D02*
X007540Y009709D01*
X007540Y009611D02*
X007210Y009611D01*
X007210Y009512D02*
X007540Y009512D01*
X007540Y009414D02*
X007210Y009414D01*
X007050Y009350D02*
X007050Y009950D01*
X006930Y010202D02*
X006624Y010202D01*
X007050Y009350D02*
X006950Y009250D01*
X007550Y009950D02*
X007550Y011015D01*
X007350Y011215D01*
X007677Y011187D02*
X007740Y011187D01*
X007740Y011285D02*
X007677Y011285D01*
X007677Y011384D02*
X007740Y011384D01*
X007740Y011482D02*
X007652Y011482D01*
X007615Y011581D02*
X007740Y011581D01*
X007740Y011679D02*
X007677Y011679D01*
X007350Y011885D02*
X008085Y011885D01*
X008150Y011950D01*
X007920Y012073D02*
X007677Y012073D01*
X007632Y012172D02*
X007920Y012172D01*
X007740Y011088D02*
X007704Y011088D01*
X007710Y010990D02*
X007755Y010990D01*
X007710Y010891D02*
X008750Y010891D01*
X008750Y010793D02*
X007710Y010793D01*
X007710Y010694D02*
X007914Y010694D01*
X007816Y010596D02*
X007710Y010596D01*
X007710Y010497D02*
X007740Y010497D01*
X007740Y010399D02*
X007710Y010399D01*
X007710Y010300D02*
X007740Y010300D01*
X007740Y010202D02*
X007710Y010202D01*
X007710Y010103D02*
X007817Y010103D01*
X007722Y010005D02*
X007916Y010005D01*
X007820Y009906D02*
X008750Y009906D01*
X008750Y009808D02*
X007860Y009808D01*
X007860Y009709D02*
X007929Y009709D01*
X007700Y009800D02*
X007700Y008900D01*
X008150Y008450D01*
X008150Y008350D01*
X008004Y008823D02*
X008750Y008823D01*
X008750Y008921D02*
X007905Y008921D01*
X007901Y009020D02*
X007860Y009020D01*
X007700Y009800D02*
X007550Y009950D01*
X007710Y007936D02*
X008750Y007936D01*
X008750Y007838D02*
X007710Y007838D01*
X007710Y006754D02*
X007974Y006754D01*
X007980Y006760D02*
X007740Y006520D01*
X007740Y006180D01*
X007980Y005940D01*
X008320Y005940D01*
X008560Y006180D01*
X008560Y006520D01*
X008320Y006760D01*
X007980Y006760D01*
X007876Y006656D02*
X007710Y006656D01*
X007710Y006557D02*
X007777Y006557D01*
X007740Y006459D02*
X007710Y006459D01*
X007710Y006360D02*
X007740Y006360D01*
X007740Y006262D02*
X007710Y006262D01*
X007710Y006163D02*
X007757Y006163D01*
X007710Y006065D02*
X007856Y006065D01*
X007954Y005966D02*
X007710Y005966D01*
X007710Y005868D02*
X008750Y005868D01*
X008750Y005966D02*
X008346Y005966D01*
X008444Y006065D02*
X008750Y006065D01*
X008750Y006163D02*
X008543Y006163D01*
X008560Y006262D02*
X008750Y006262D01*
X008750Y006360D02*
X008560Y006360D01*
X008560Y006459D02*
X008750Y006459D01*
X008750Y006557D02*
X008523Y006557D01*
X008424Y006656D02*
X008750Y006656D01*
X008750Y006754D02*
X008326Y006754D01*
X008320Y005760D02*
X007980Y005760D01*
X007740Y005520D01*
X007740Y005180D01*
X007980Y004940D01*
X008320Y004940D01*
X008560Y005180D01*
X008560Y005520D01*
X008320Y005760D01*
X008409Y005671D02*
X008750Y005671D01*
X008750Y005769D02*
X007710Y005769D01*
X007710Y005671D02*
X007891Y005671D01*
X007792Y005572D02*
X007710Y005572D01*
X007710Y005474D02*
X007740Y005474D01*
X007740Y005375D02*
X007710Y005375D01*
X007710Y005277D02*
X007740Y005277D01*
X007742Y005178D02*
X007710Y005178D01*
X007710Y005080D02*
X007841Y005080D01*
X007939Y004981D02*
X007710Y004981D01*
X007710Y004883D02*
X008750Y004883D01*
X008750Y004981D02*
X008361Y004981D01*
X008459Y005080D02*
X008750Y005080D01*
X008750Y005178D02*
X008558Y005178D01*
X008560Y005277D02*
X008750Y005277D01*
X008750Y005375D02*
X008560Y005375D01*
X008560Y005474D02*
X008750Y005474D01*
X008750Y005572D02*
X008508Y005572D01*
X008750Y004784D02*
X007710Y004784D01*
X007710Y004686D02*
X007906Y004686D01*
X007980Y004760D02*
X007740Y004520D01*
X007740Y004180D01*
X007980Y003940D01*
X008320Y003940D01*
X008560Y004180D01*
X008560Y004520D01*
X008320Y004760D01*
X007980Y004760D01*
X007807Y004587D02*
X007710Y004587D01*
X007710Y004489D02*
X007740Y004489D01*
X007740Y004390D02*
X007710Y004390D01*
X007710Y004292D02*
X007740Y004292D01*
X007740Y004193D02*
X007710Y004193D01*
X007710Y004095D02*
X007826Y004095D01*
X007924Y003996D02*
X007710Y003996D01*
X007710Y003898D02*
X008750Y003898D01*
X008750Y003996D02*
X008376Y003996D01*
X008474Y004095D02*
X008750Y004095D01*
X008750Y004193D02*
X008560Y004193D01*
X008560Y004292D02*
X008750Y004292D01*
X008750Y004390D02*
X008560Y004390D01*
X008560Y004489D02*
X008750Y004489D01*
X008750Y004587D02*
X008493Y004587D01*
X008394Y004686D02*
X008750Y004686D01*
X008750Y003799D02*
X007710Y003799D01*
X007710Y003701D02*
X007921Y003701D01*
X007980Y003760D02*
X007740Y003520D01*
X007740Y003180D01*
X007980Y002940D01*
X008320Y002940D01*
X008560Y003180D01*
X008560Y003520D01*
X008320Y003760D01*
X007980Y003760D01*
X007822Y003602D02*
X007710Y003602D01*
X007710Y003504D02*
X007740Y003504D01*
X007740Y003405D02*
X007710Y003405D01*
X007710Y003307D02*
X007740Y003307D01*
X007740Y003208D02*
X007710Y003208D01*
X007710Y003110D02*
X007811Y003110D01*
X007909Y003011D02*
X007710Y003011D01*
X007710Y002913D02*
X008750Y002913D01*
X008750Y003011D02*
X008391Y003011D01*
X008489Y003110D02*
X008750Y003110D01*
X008750Y003208D02*
X008560Y003208D01*
X008560Y003307D02*
X008750Y003307D01*
X008750Y003405D02*
X008560Y003405D01*
X008560Y003504D02*
X008750Y003504D01*
X008750Y003602D02*
X008478Y003602D01*
X008379Y003701D02*
X008750Y003701D01*
X008750Y002814D02*
X007710Y002814D01*
X007710Y002716D02*
X007879Y002716D01*
X007781Y002617D02*
X007710Y002617D01*
X007710Y002125D02*
X007739Y002125D01*
X007652Y002026D02*
X007838Y002026D01*
X007936Y001928D02*
X007554Y001928D01*
X007455Y001829D02*
X008750Y001829D01*
X008750Y001731D02*
X007357Y001731D01*
X007448Y001632D02*
X008750Y001632D01*
X008750Y001534D02*
X008346Y001534D01*
X008445Y001435D02*
X008750Y001435D01*
X008750Y001337D02*
X008543Y001337D01*
X008560Y001238D02*
X008750Y001238D01*
X008750Y001140D02*
X008560Y001140D01*
X008560Y001041D02*
X008750Y001041D01*
X008750Y000943D02*
X008522Y000943D01*
X008424Y000844D02*
X008750Y000844D01*
X008750Y000746D02*
X008325Y000746D01*
X007855Y001435D02*
X007560Y001435D01*
X007560Y001337D02*
X007757Y001337D01*
X007740Y001238D02*
X007560Y001238D01*
X007519Y001140D02*
X007740Y001140D01*
X007740Y001041D02*
X007421Y001041D01*
X007322Y000943D02*
X007778Y000943D01*
X007954Y001534D02*
X007546Y001534D01*
X008100Y001928D02*
X008200Y001928D01*
X008200Y002026D02*
X008100Y002026D01*
X008100Y002125D02*
X008200Y002125D01*
X008200Y002223D02*
X008100Y002223D01*
X008200Y002322D02*
X008750Y002322D01*
X008750Y002420D02*
X008600Y002420D01*
X008600Y002519D02*
X008750Y002519D01*
X008750Y002617D02*
X008519Y002617D01*
X008421Y002716D02*
X008750Y002716D01*
X008750Y002223D02*
X008600Y002223D01*
X008561Y002125D02*
X008750Y002125D01*
X008750Y002026D02*
X008462Y002026D01*
X008364Y001928D02*
X008750Y001928D01*
X008200Y002420D02*
X008100Y002420D01*
X008100Y002519D02*
X008200Y002519D01*
X008200Y002617D02*
X008100Y002617D01*
X008100Y002716D02*
X008200Y002716D01*
X004860Y008232D02*
X004096Y008232D01*
X004010Y008330D02*
X004860Y008330D01*
X005160Y009420D02*
X005020Y009560D01*
X004680Y009560D01*
X004540Y009420D01*
X004540Y009571D01*
X004840Y009871D01*
X004840Y010880D01*
X004980Y010740D01*
X005045Y010740D01*
X005045Y010233D01*
X005078Y010200D01*
X005045Y010167D01*
X005045Y009564D01*
X005109Y009499D01*
X005160Y009499D01*
X005160Y009420D01*
X005097Y009512D02*
X005068Y009512D01*
X005045Y009611D02*
X004579Y009611D01*
X004540Y009512D02*
X004632Y009512D01*
X004678Y009709D02*
X005045Y009709D01*
X005045Y009808D02*
X004776Y009808D01*
X004840Y009906D02*
X005045Y009906D01*
X005045Y010005D02*
X004840Y010005D01*
X004840Y010103D02*
X005045Y010103D01*
X005076Y010202D02*
X004840Y010202D01*
X004840Y010300D02*
X005045Y010300D01*
X005045Y010399D02*
X004840Y010399D01*
X004840Y010497D02*
X005045Y010497D01*
X005045Y010596D02*
X004840Y010596D01*
X004840Y010694D02*
X005045Y010694D01*
X004928Y010793D02*
X004840Y010793D01*
X004460Y010793D02*
X004372Y010793D01*
X004460Y010694D02*
X003840Y010694D01*
X003840Y010596D02*
X004460Y010596D01*
X004460Y010497D02*
X003766Y010497D01*
X003667Y010399D02*
X004460Y010399D01*
X004460Y010300D02*
X003655Y010300D01*
X003624Y010202D02*
X004460Y010202D01*
X004460Y010103D02*
X003655Y010103D01*
X003655Y010005D02*
X004436Y010005D01*
X004337Y009906D02*
X003655Y009906D01*
X003655Y009808D02*
X004239Y009808D01*
X004160Y009709D02*
X003655Y009709D01*
X003655Y009611D02*
X004160Y009611D01*
X004160Y009512D02*
X004068Y009512D01*
X003632Y009512D02*
X003603Y009512D01*
X003534Y009414D02*
X003340Y009414D01*
X003340Y009315D02*
X003440Y009315D01*
X003440Y009217D02*
X003340Y009217D01*
X003340Y009118D02*
X003440Y009118D01*
X003440Y009020D02*
X003399Y009020D01*
X003498Y008921D02*
X003499Y008921D01*
X003590Y008823D02*
X003598Y008823D01*
X003590Y008724D02*
X003690Y008724D01*
X003690Y008626D02*
X003590Y008626D01*
X003590Y008527D02*
X003690Y008527D01*
X003690Y008429D02*
X003590Y008429D01*
X003590Y008330D02*
X003690Y008330D01*
X003690Y008232D02*
X003590Y008232D01*
X003590Y008133D02*
X003742Y008133D01*
X003759Y008035D02*
X003831Y008035D01*
X003831Y007936D02*
X003816Y007936D01*
X003828Y007838D02*
X003831Y007838D01*
X003831Y007739D02*
X003805Y007739D01*
X003831Y007641D02*
X003740Y007641D01*
X003740Y007542D02*
X003820Y007542D01*
X003791Y007444D02*
X003740Y007444D01*
X003740Y007345D02*
X003791Y007345D01*
X003840Y010793D02*
X003928Y010793D01*
X003872Y013452D02*
X003428Y013452D01*
X003329Y013551D02*
X003971Y013551D01*
X004329Y013551D02*
X004971Y013551D01*
X004872Y013452D02*
X004428Y013452D01*
X004696Y014240D02*
X004004Y014240D01*
X003940Y014339D02*
X000550Y014339D01*
X000550Y014437D02*
X003940Y014437D01*
X003940Y014536D02*
X000550Y014536D01*
X000550Y014634D02*
X003940Y014634D01*
X003940Y014733D02*
X000550Y014733D01*
X000550Y014831D02*
X003940Y014831D01*
X003940Y014930D02*
X000550Y014930D01*
X000550Y015028D02*
X003972Y015028D01*
X004728Y015028D02*
X005092Y015028D01*
X004993Y014930D02*
X004760Y014930D01*
X004760Y014831D02*
X004900Y014831D01*
X004900Y014733D02*
X004760Y014733D01*
X005329Y013551D02*
X005795Y013551D01*
X005740Y013452D02*
X005428Y013452D01*
X000959Y007739D02*
X000550Y007739D01*
X000550Y007641D02*
X000861Y007641D01*
X000762Y007542D02*
X000550Y007542D01*
X000550Y007444D02*
X000740Y007444D01*
X000740Y007345D02*
X000550Y007345D01*
X000550Y007247D02*
X000740Y007247D01*
X000772Y007148D02*
X000550Y007148D01*
X000550Y007050D02*
X000871Y007050D01*
X000886Y008035D02*
X000550Y008035D01*
X000550Y008133D02*
X000787Y008133D01*
X000740Y008232D02*
X000550Y008232D01*
X000550Y008330D02*
X000740Y008330D01*
X000740Y008429D02*
X000550Y008429D01*
X000550Y008527D02*
X000747Y008527D01*
X000846Y008626D02*
X000550Y008626D01*
X000550Y008724D02*
X000944Y008724D01*
X000901Y009020D02*
X000550Y009020D01*
X000550Y009118D02*
X000802Y009118D01*
X000740Y009217D02*
X000550Y009217D01*
X000550Y009315D02*
X000740Y009315D01*
X000740Y009414D02*
X000550Y009414D01*
X000550Y009512D02*
X000740Y009512D01*
X000831Y009611D02*
X000550Y009611D01*
X000550Y009709D02*
X000929Y009709D01*
X000916Y010005D02*
X000550Y010005D01*
X000550Y010103D02*
X000817Y010103D01*
X000740Y010202D02*
X000550Y010202D01*
X000550Y010300D02*
X000740Y010300D01*
X000740Y010399D02*
X000550Y010399D01*
X000550Y010497D02*
X000740Y010497D01*
X000816Y010596D02*
X000550Y010596D01*
X000550Y010694D02*
X000914Y010694D01*
X000755Y010990D02*
X000550Y010990D01*
X000550Y011088D02*
X000740Y011088D01*
X000740Y011187D02*
X000550Y011187D01*
X000550Y011285D02*
X000740Y011285D01*
X000740Y011384D02*
X000550Y011384D01*
X000550Y011482D02*
X000740Y011482D01*
X000740Y011581D02*
X000550Y011581D01*
X000550Y011679D02*
X000740Y011679D01*
X003650Y001850D02*
X003150Y001350D01*
X001404Y001731D02*
X001349Y001731D01*
D18*
X008150Y011350D02*
X008150Y011950D01*
X008150Y012550D01*
X007550Y013150D01*
X006150Y013150D01*
X005150Y013150D01*
X004650Y013150D01*
X004150Y013150D01*
X003150Y013150D01*
D19*
X003150Y012150D01*
X002650Y011650D01*
X002650Y010735D01*
X002450Y010535D01*
X002450Y009865D02*
X002450Y009350D01*
X003150Y008650D01*
X003150Y008300D01*
X002850Y008000D01*
X002850Y007450D01*
X002750Y007350D01*
X002550Y007350D01*
X002650Y006850D02*
X003150Y007350D01*
X003150Y007900D01*
X003400Y008150D01*
X003400Y008750D01*
X003150Y009000D01*
X003150Y009765D01*
X003250Y009865D01*
X003250Y010535D02*
X003265Y010550D01*
X003550Y010550D01*
X003650Y010650D01*
X003650Y011650D01*
X004150Y012150D01*
X004150Y013150D01*
X004650Y013150D02*
X004650Y009950D01*
X004350Y009650D01*
X004350Y008950D01*
X004750Y008550D01*
X004950Y008550D01*
X005050Y008450D01*
X005050Y007918D01*
X005083Y007885D01*
X005083Y007215D01*
X005150Y007148D01*
X005150Y006750D01*
X005150Y006450D01*
X005550Y006050D01*
X005550Y005650D01*
X005450Y005550D01*
X005450Y004285D01*
X005485Y004250D01*
X005800Y004700D02*
X005800Y008100D01*
X005350Y008550D01*
X005350Y009650D01*
X005450Y009750D01*
X005450Y009865D01*
X005450Y010535D02*
X005650Y010735D01*
X005650Y011650D01*
X005150Y012150D01*
X005150Y013150D01*
X006150Y013150D02*
X006150Y012150D01*
X006650Y011650D01*
X006650Y010935D01*
X006250Y010535D01*
X006335Y009950D02*
X006250Y009865D01*
X006335Y009950D02*
X007050Y009950D01*
X005150Y006750D02*
X004550Y006750D01*
X004350Y006550D01*
X003750Y006550D01*
X003615Y006685D01*
X003150Y006685D01*
X003150Y006950D01*
X003550Y007350D01*
X003550Y007850D01*
X002650Y006850D02*
X002650Y005550D01*
X003950Y004250D01*
X005800Y004700D02*
X006100Y004400D01*
D20*
X005150Y005850D03*
X004650Y005850D03*
X004650Y006350D03*
X004150Y005850D03*
X004650Y005350D03*
M02*
